<?xml version="1.0" encoding="utf-8"?>
<!-- Generator: Adobe Illustrator 18.0.0, SVG Export Plug-In . SVG Version: 6.00 Build 0)  -->
<!DOCTYPE svg PUBLIC "-//W3C//DTD SVG 1.1//EN" "http://www.w3.org/Graphics/SVG/1.1/DTD/svg11.dtd">
<svg version="1.1" id="Layer_1" xmlns="http://www.w3.org/2000/svg" xmlns:xlink="http://www.w3.org/1999/xlink" x="0px" y="0px"
	 width="1920px" height="225px" viewBox="0 0 1920 225" enable-background="new 0 0 1920 225" xml:space="preserve">
<rect fill="#FFFFFF" width="1920" height="161.8"/>
<path fill="#FFFCEA" d="M1920,224.8l0-199c-33.4,18.7-68.4,33.9-104.8,45.8c-63.6,20.8-130.4,35.4-197.1,41.6
	c-59.6,5.6-119.8,4.2-179.2-3.1c-73.2-9-145.3-27.4-219.2-30.9c-142-6.7-276.3,50.8-414.6,73.4c-71.1,11.6-142.6,11.8-214.2,3.7
	c-73.5-8.3-145.9-23.9-218.2-39.2c-71-15-142.3-29.4-214.7-36.2c-36.9-3.5-74-4.9-111.1-3.3c-15.5,0.7-31,1.8-46.5,3.6l0.2,143.6
	H1920z"/>
<g>
	<path fill="#E8E4FF" d="M1744.7,93.9c-0.6,0.1-1.7,0.5,0.2,0C1744.8,93.8,1744.8,93.9,1744.7,93.9z"/>
	<path fill="#F6EFC0" d="M1920,10c-36.3,26.5-75.7,48.1-117.6,64.7c-14,5.5-28.3,10.5-42.7,14.9c-4.6,1.4-9.3,2.8-14,4
		c-0.2,0-0.3,0.1-0.4,0.1c-0.6,0.1-3.2,0.8-3,0.7c-2.5,0.5-5,1-7.4,1.5c-29,5.7-58.5,9.2-88,11.2c-62.5,4.1-125.1,0.5-187-9
		c-70.3-10.8-140.1-26.9-211.6-27.3c-140.1-0.9-271,55.4-407.8,76.2c-147.4,22.4-293.6-12-437.2-42C333,90.4,262.4,77,190.8,71.7
		c-63.9-4.8-127.4-2.1-190.2,10v4.6c15.4-1.8,31-3.1,46.5-3.8c37-1.6,74.2-0.2,111.1,3.3c72.4,6.8,143.7,21.3,214.7,36.2
		c72.3,15.2,144.7,30.9,218.2,39.2c71.5,8.1,143,7.9,214.2-3.7c138.2-22.6,272.6-80.1,414.6-73.4c73.9,3.5,145.9,21.9,219.2,30.9
		c59.4,7.3,119.6,8.7,179.2,3.1c66.7-6.2,133.5-20.8,197.1-41.6c36.4-11.9,71.4-27,104.7-45.7V10z M1744.7,93.9c0.1,0,0.1,0,0.2,0
		C1743,94.3,1744.1,94,1744.7,93.9z"/>
</g>
<g>
	<path fill="#FFFCEA" d="M856.3,147.9c-0.1-1.8-0.1-3.6-0.1-5.4c0-58.4,47.4-105.8,105.8-105.8s105.8,47.4,105.8,105.8
		c0,8-0.9,15.8-2.6,23.4"/>
	<path fill="#F6EFC0" d="M1055.6,100c-16.2-35.5-52.1-60.3-93.6-60.3c-56.7,0-102.8,46.1-102.8,102.8c0,1.7,0.1,4.2,0.2,6l-6.1-1.2
		c-0.1-1.8-0.1-2.9-0.1-4.8c0-60,48.8-108.8,108.8-108.8c44.4,0,82.6,26.7,99.6,64.9L1055.6,100z"/>
</g>
<path fill="#FFFCEA" d="M1062.7,150.5c0,24.9-46.6,45-102.2,45c-55.6,0-102-27.9-102-52.8s46.5-37.2,102-37.2
	C1016,105.5,1062.7,125.6,1062.7,150.5z"/>
<g>
	<defs>
		<path id="SVGID_1_" d="M981.2,90.9c3.9,0.9,7.5,2.2,10.7,3.8c3.2,1.6,5.8,3.7,7.7,6.1c2,2.4,3,5.1,3,8.2c0,2.3-0.6,4.4-1.8,6.3
			c-1.2,2-2.6,3.7-4.4,5.1c-1.7,1.5-3.6,2.6-5.6,3.5c-2,0.9-3.9,1.3-5.7,1.3c-1.6,0-3.1-0.2-4.6-0.6c-1.5-0.4-2.8-0.8-4.2-1.3
			c-1.3-0.5-2.7-0.9-4-1.3c-1.4-0.4-2.8-0.6-4.3-0.6c-2.6,0-5,0.6-7.2,1.8c-2.2,1.2-4,2.7-5.6,4.7c-1.5,2-2.8,4.2-3.7,6.8
			c-0.9,2.5-1.3,5.2-1.3,8c0,3.1,0.5,5.9,1.6,8.5c1.1,2.6,2.5,4.8,4.2,6.6c1.7,1.8,3.5,3.2,5.5,4.2c2,1,3.9,1.5,5.6,1.5
			c1.7,0,3.4-0.3,5-0.9c1.6-0.6,3.3-1.3,4.9-2c1.6-0.7,3.2-1.4,4.8-2c1.5-0.6,3.1-0.9,4.7-0.9c1.7,0,3.6,0.4,5.6,1.3
			c2.1,0.8,4,2,5.8,3.5c1.8,1.5,3.3,3.2,4.5,5.1c1.2,2,1.8,4.1,1.8,6.3c0,2.8-1,5.5-3,8.1c-2,2.6-4.6,4.9-7.7,6.8
			c-3.2,2-6.8,3.5-10.9,4.7c-4.1,1.1-8.2,1.7-12.5,1.7c-7,0-13.8-1.2-20.4-3.5c-6.5-2.3-12.3-5.7-17.3-10.2c-5-4.5-9-9.9-12-16.4
			c-3-6.5-4.4-13.9-4.4-22.1c0-8.5,1.5-16.2,4.4-22.8c2.9-6.7,6.8-12.3,11.8-16.8c4.9-4.6,10.6-8,17-10.4c6.4-2.4,13.1-3.6,20-3.6
			C973.3,89.6,977.3,90,981.2,90.9z"/>
	</defs>
	<clipPath id="SVGID_2_">
		<use xlink:href="#SVGID_1_"  overflow="visible"/>
	</clipPath>
	<g clip-path="url(#SVGID_2_)">
		<path opacity="0.8" fill-rule="evenodd" clip-rule="evenodd" fill="#239B8F" d="M983.5,151.2c11.2-3.6,18.6,13.9,11.7,19.9
			C988.5,177,972.2,154.8,983.5,151.2z"/>
		<path opacity="0.85" fill-rule="evenodd" clip-rule="evenodd" fill="#F4BD2B" d="M981.4,101.5c-0.4,0.2-1.4-0.1-1.6,0.5
			c-0.6,1.9,2.8,1.6,3.4,3.4c0.7,1.8-2.6,3.2-1.7,4.6c0.2,0.3,0.9,0.3,0.9,0.7c0,0.7-1.1,0.2-1.6,0.9c-0.4,0.5,0.9,0.3,0.3,1.2
			c-1.2,2.1-5.1,1.1-5,3.6c0,0.6,0.9,1.6,0.1,2c-0.7,0.4-1.1-0.9-1.5-1.2c-1.5-1.2-1.5,1.5-3.4,1.4c-1.6-0.1-1.9-0.4-2.9-0.7
			c-1.3-0.4-1.9-1.6-3.1-1.3c-0.4,0.1-0.4,0.8-1,0.8c-0.9,0,0.5-1.4-0.2-1.7c-0.8-0.4-2.2,0.3-2.4-0.7c-0.1-0.3,0.2-1.2,0.1-1.7
			c-0.3-1.2-2,0.2-3.5-0.9c-1.6-1.1-3.8-1.4-3.8-2.9c0-0.6,0.1-1.8-0.9-2.4c-1.6-1.1-1-3.4-0.1-4.7c0.7-1,0.4-2.6,1.4-3.5
			c1-0.8,2.4-0.7,3.8-1.6c1-0.7,1.5,1.1,3.7,0.2c1-0.4,1.9,1.2,3.1,0.8c1.4-0.9-2-3.7-0.4-3.7c1.7,0,1.5,3.9,3,3.3
			c0.5-0.2,0.5-0.9,1-1.2c0.5-0.3,0.9,0.8,1.4,0.5c1.1-0.8-0.2-3.3,1.5-3.5c0.8-0.1,0.5,1,1.5,1.5c1.2,0.6,0.9,4.2,2.4,2.9
			c0.5-0.4,0.4-2.5,1.4-2.1c1,0.4-0.6,2.3-0.4,3.1c0.6,1.8,2.1,0.8,4,0.9C981.7,100.2,982.1,101.1,981.4,101.5z M976.9,107.3
			c-1.1,0-1.2,0.8-1.1,1.4c0.1,0.6,1.1,0.6,1.7,0.5C978.4,109,977.8,107.2,976.9,107.3z"/>
		<path opacity="0.8" fill-rule="evenodd" clip-rule="evenodd" fill="#772367" d="M947.8,110.7c-0.9-0.3-1.1-0.7-2-1
			c-0.8-0.3-1.9,1-1.3,1.9c0.3,0.5,1.5,0.6,1.1,1.1c-0.3,0.3-1-0.1-1.5,0.1c-2.3,1,2.1,2.1,2.1,3.4c0,0.3-1,0.8-1.9,0.3
			c-1.2-0.6-0.7-1.7-1.8-2c-1.4-0.5-1.3,2-0.8,3.6c0.5,1.4,0.8,1.1,1,2.5c0.1,0.6-0.2,1.1-0.4,1.2c-1,0.4-0.7-2.4-1.8-3.3
			c-0.6,0-0.9,0.4-1.4,0.5c-0.6,0-0.3-0.6-0.9-0.6c-0.3,0.1-0.2,0.4-0.1,0.8c0.1,0.6,0.9,1.8-0.2,2.1c-2,0.6-4.6-4.4-4.8-1.6
			c0,0.3-0.2,0.6-0.5,0.7c-1,0.2-0.6-1.3-1.3-1.5c-2.2-0.7-4.8-0.5-5.7-1.8c-0.6-0.9-1.1-2.6-3.5-3.4c-0.6-0.2,0.7-1.5,0.3-1.7
			c-1.5-1.1-0.9-2.9-2.1-4.5c-1.6-2,3.3-1.3,2.8-3.3c-0.1-0.6-1.1-1-0.8-1.6c0.3-0.6,0.7,0,1.6-0.1c1-0.1,1.7-0.2,1.7-1.2
			c0-0.5-0.8-1.7-0.2-2.2c0.7-0.5,2.7,0.6,2.6-0.4c-0.1-0.7,0-1.4,0.5-1.7c0.8,0.2,0.9,1.8,1.4,1.1c0.3-0.5-0.7-1.3,0.1-1.7
			c0.7-0.4,1,0.5,1.7,0.5c1.3-0.1,1,0.8,2.1,0.6c1.4-0.2,2.9-0.6,3.8,0.1c0.5,0.3,0.2,1.1,0.9,1.3c0.5-0.1,1.2-0.7,1.5-0.5
			c0.6,0.2-0.2,0.8,0.3,0.8c0.7,0,0.6-2.3,1.6-2.9c1.2-0.7,1.8-0.5,3-0.2c1,0.3,0.8-0.9,1.4-0.6c0.9,0.4,1.3,0.3,2.2,0.2
			c0.5-0.1,0.1,0.9,0.6,1.1c0.6,0.2,1.4-0.4,1.7-0.1c0.2,0.2-0.6,0.2-0.9,0.5c-0.4,0.3,0.9,0.5,1.5,0.5c1,0,2.6,1.2,1.9,2
			c-0.1,0.1-0.8,0.3-0.7,0.5c0,0.3,0.7,0.2,0.9,0.4c0.1,0.5-0.6,0.5-0.2,1c0.3,0.3,0.9,0.1,0.7,0.6c-0.2,0.3-0.7,0.1-0.7,0.6
			c0.1,0.6,2.1,1.3,1.5,1.8c-0.4,0.3-1-0.5-1.3-0.5c-1.2,0.3,0.5,1.6,0,2c-0.7,0.5,0.5,0.7-1,1.1
			C951.4,107.7,950.7,111.5,947.8,110.7z M938,119.5c-0.3-0.3-0.8,1.2-0.2,0.9C938.2,120.1,938.3,119.8,938,119.5z M941,110.6
			c0.3-0.8-1.1-1.1-1.3-0.6C939.3,110.6,940.5,111.4,941,110.6z"/>
		<path opacity="0.8" fill-rule="evenodd" clip-rule="evenodd" fill="#086E75" d="M949.5,174.5c0.5,0.2,0.6-0.4,1-0.5
			c0.1,0,0.1,0.2,0.3,0.5c0.2,0.3,0.6-0.2,1-0.2c1.8,0,0.4-2.1,1.5-2.4c0.9-0.2,1.2,1.4,1.9,2c1,0.8,2.4-0.5,3.7-0.9
			c0.9-0.3,2.3-0.1,3.1,0.3c0.6,0.4,0.9,1.2,2,1.7c0.4,0.1,0.4-0.5,0.8-0.3c0.5,0.2,0.2,1.1,1,1.1c1.6,0.1,2.9,0.1,3.5,1.7
			c0.2,0.5-0.4,1.1-0.1,1.5c0.2,0.3,0.8,0.5,0.8,1c-0.3,0.9-1.3,0.6-1.6,1.4c0.1,0.8,1.8,0.4,2.3,1.4c0.5,0.8-0.7,1.6,0,2.3
			c0.3,0.3,0.6,0,1,0.3c1.7,0.9-0.3,2.2-1.5,0.5c-0.2-0.3-0.8,0.2-1.1,0.4c-1.2,1-0.7,1.6-1.4,2.5c-0.1,0.2,0.3,0.7,0.2,0.9
			c-0.2,0.4-1.4,0.2-1.4,0.4c-0.2,0.9-0.6,0.6-1.2,0.9c-0.4,0.3,0.5,0.5,0.8,0.8c0.6,0.9-1.7,1.3-1.6,0.8c0-0.4,0.3-0.9-0.1-0.9
			c-2.2,0.2-1.2,2.5-2.9,2.7c-1,0.1-3.9-2-4.6-1.5c-0.8,0.6-1,1.6-1.8,1.1c-0.6-0.4,0.1-1.5-0.3-1.5c-0.6,0.1-0.3,2.4-1.2,2.1
			c-0.7-0.2,0.5-1.5,0.1-2c-0.1-0.2-0.5-0.2-0.5,0c-0.2,0.9-1,1.3-1.1,0.6c-0.5-2.2-0.3-1-1.6-1c-0.3,0-0.6-0.4-0.5-0.7
			c0.1-0.3,0.2-0.4,0.3-0.7c0.1-0.8-0.3-0.6-0.7,0c-0.2,0.3,0.2,1.5-0.2,1.7c-0.7,0.3-0.6-1-1.4-1.1c-0.6-0.1-0.1-0.3-0.2-0.7
			c-0.1-0.3-0.4,0.2-0.5-0.1c0-0.1-0.1-0.2-0.1-0.3c-0.1-0.4,0.8,0,0.8-0.3c0.1-0.5-1-0.6-0.7-1.1c0.1-0.2,0.7,0.2,1.1,0
			c0.4-0.2,0.6-1.2-0.7-0.7c-0.2,0.1-0.9,0.2-1-0.1c-0.2-0.5,0.4-1.3,0.9-1.5c0.8-0.4-0.5-1.5-0.3-2.3c0.1-0.4,0.5-0.8,0.6-1.2
			c0.2-0.5,0.2-0.9,0.4-1.5c0.1-0.5,0.5-0.6,0-1c-0.2-0.2-0.7,0.2-0.9-0.1c-0.4-0.7-0.8-1.7,0.3-2.3c0.9-0.5,1.4-0.2,1.9,0.2
			c0.7,0.6,1,0.1,0.3-0.5c-0.3-0.2-0.4,0.1-1-0.3c-0.3-0.2,0.4-0.6,0.2-0.9c-0.3-0.5-1.6,0.4-1.8-0.2c-0.2-0.5-1.1-0.2-1.4-1
			C945.2,174.4,949.1,174.3,949.5,174.5z"/>
		<path opacity="0.8" fill-rule="evenodd" clip-rule="evenodd" fill="#404195" d="M933.2,179.3c0.2-0.4,1.7-1.3,2.8-1.7
			c4.6-1.8,2.6-6.1,8.1-4.1c1.6,0.6,3.8,0.5,5.1,1.1c1.5,0.7,1.6,2.1,3.4,2.5c5.2,1.1,4.1,10,2.1,14c-3.3,6.7-13.1,7.3-18.6,3
			c-2.8-2.2-4.9-5.9-3.3-10.8C933.2,181.6,932.9,180,933.2,179.3z"/>
		<path opacity="0.8" fill-rule="evenodd" clip-rule="evenodd" fill="#76BE4F" d="M992.9,195.5c-0.6-0.6-1-0.1-1.1-0.8
			c-0.1-0.6,0-0.2,0.1-0.7c0.3-2.3-3.1-5.5-3.7-7.4c-0.2-0.6,0.3-1.1,0.5-1.5c1.1-1.5,3.3,1.9,5.3,1.4c0.8-0.2,2.1,0,2.8,0.3
			c0.1-0.1,0.2-0.2,0.2-0.2h0c-1.6-1.8-5-1.6-5.7-3.6c-0.4-1.2,0.4-2.2,1.7-3.4c1-1,3.3,0.3,4.8,0.5c2.4,0.3,7,2.4,7.6-0.1
			c0.1-0.5-0.6-0.8-1.7-0.9c-3-0.5-8,1.4-10-1.4c-1.2-1.7,0-3.8,0.6-5.2c0.2-0.4,0.5-2.2-0.5-2.3c-0.8,0-0.9,0.4-1.6,0.5
			c-1.3,0.1-0.8-0.9-1.6-2.1c-0.9-1.3,3.1-3.9,1.5-4.2c-1.1-0.2-1.6,2.8-2.5,2.4c-1.1-0.5,0.1-2.2,0.7-3.7c1-2.6,3.2-6.2,1.1-8.2
			c-0.6-0.6-0.8-1.2-1.2-0.8c-0.4,0.4-0.4,1-0.5,1.7c-0.1,0.4,0,0.6,0.1,1c0.4,2,1.1,4.2-0.4,5.2c-0.3,0.2-0.4-1-0.7-0.5
			c-0.7,1.1-0.8,6.1-2.5,5c-1.3-0.8,1-2.9,0.7-4.9c-0.1-0.5,0.3-2-0.3-1.6c-0.6,0.5-0.1,1.7-0.8,1.6c-0.4,0-0.4-1-0.6-0.5
			c-0.5,1.2-0.5,5.5-1.6,4.1c-0.8-1,0.9-3.5-0.3-3.5c-0.9,0,0.3,3-0.8,2.8c-1-0.2-2.1-2-1.4-2.7c-0.5-0.1-1-0.4-1.4-0.9
			c0.3,2,2.4,3.7,1,5.4c-0.6,0.7-1.3,0-3.1-0.1c-0.9,0-1.7,0.8-2.4,0.5c-1.7-0.8-2.6-2.4-4.1-3.9c-0.5-0.5-0.4-2.6-1.6-2.2
			c-0.9,0.3,0.5,1.8,0.8,2.3c1.2,1.8,4.2,2.7,3.6,4.7c-0.3,1.2-1.7,1.8-3.5,1.7c-1.9-0.1-5.3-1.6-7.3-2.5c-0.1,0.3-0.4,0.6-0.6,0.8
			c2.4,0.7,4.9,1.2,6.9,2.6c0.7,0.5-0.2,2.4-0.1,2.8c0.1,0.6,1.2,0.6,1.2,0.9c-0.1,0.6-0.5,0.4-0.7,0.9c-0.3,0.6,1,1,0.9,1.6
			c-0.1,1.5-0.1,2.2-0.5,3.1c-0.1,0.2-0.5,1.3-0.2,1.5c0.4,0.3,1.2-0.3,1.5,0.7c0.8,2.4,1.8,3.3,3.4,5.1c0.3,0.4-1.4,1.7-1,1.7
			c0.6,0,0,0.4,0.5,0.4c0.6,0,0.9-2.1,1.5-2.1c0.6,0,0.4,0.7,1,0.7c1.9-0.1,2.3,2,3.7,2c1.5,0,1.6-0.9,2.7-1.3
			c1.5-0.6,1.8-1.8,3-1.8c2.9,0,4.1,3.6,3.8,5.7c-0.1,0.7-0.1,0.7,0,1.1c1.4,3.6,1.5,8.3,5.1,8c0.2,0,0.2,0,0.4-0.1
			C997.5,200.5,994.4,197.1,992.9,195.5z"/>
		<path opacity="0.8" fill-rule="evenodd" clip-rule="evenodd" fill="#CE1E4A" d="M938.8,187.7c1.2-2.6,3.6-3.8,2.1-5.3
			c-1.7-1.6,0.6-3.1-1.8-5.3c-0.3-0.3,0.8-0.7,0.4-1.2c-0.4-0.6-1.1,0.1-1.6-0.3c-0.5-0.4,0.6-1.4,0.3-1.9c-0.4-0.8-1.7,0.5-2.2,0
			c-0.3-0.3-0.2-0.8-0.4-1.2c-0.7-1-0.8-1.2-2.3-0.6c-0.6,0.2-1.6,0.6-1.7,0.2c-0.1-0.7-0.2-1-0.8-1c-1.5,0-2.3,0.1-3.5-0.2
			c-1-0.3-2.7,1.8-3.9,3.5c-0.6,0.6-2.6,0.3-2.7,1c-0.2,0.9,0.5,1.3,0.3,1.9c-0.3,0.8-2.2,0.2-2.3,0.9c-0.1,2-1.5,3.8-0.9,4.3
			c1,0.7,0.2,1.7,0.4,3.5c0.2,1.6,1.3,0.8,2.2,2.1c1.1,1.6,1,2.5,1.6,3c0.5,0.4,1.4-1,2-0.7c0.4,0.3,0,0.9,0.4,1.2
			c0.5,0.2,1-0.3,1.6-0.3c0.6,0,0.2,1,0.8,1.3c1.2,0.6,2.5-1.7,3.6-1.2c0.5,0.2,0.5,1.6,1.3,1.4c0.7-0.2,0.7-1.3,0.9-1.8
			c0.1-0.2,0.4-0.4,0.8-0.5c0.8-0.1,1,1.3,1.4,0.7C936.1,189.3,937.9,189.8,938.8,187.7z"/>
		<path opacity="0.95" fill-rule="evenodd" clip-rule="evenodd" fill="#EE5A24" d="M948.6,107.3c0.2-0.3,1.6-1.2,2.5-1.5
			c4.2-1.6,2.3-5.6,7.4-3.7c1.5,0.6,3.5,0.4,4.6,1c1.3,0.6,1.5,1.9,3.1,2.2c4.7,1,3.7,9.1,1.9,12.7c-3,6.1-11.9,6.7-16.9,2.7
			c-2.6-2-4.4-5.4-3-9.9C948.6,109.4,948.3,107.9,948.6,107.3z"/>
		<path opacity="0.95" fill-rule="evenodd" clip-rule="evenodd" fill="#F1D616" d="M956.9,98.2c1,1.5,3.7-1.1,2.7-2.2
			C958.6,94.7,956.4,97.5,956.9,98.2z"/>
		<path opacity="0.95" fill-rule="evenodd" clip-rule="evenodd" fill="#F1D616" d="M964.5,94.3c-0.1,0.5,0,1.1,0.6,1.4
			c0.8,0.5,1.5-0.5,1.4-1.2C966.4,93.6,964.8,93.4,964.5,94.3z"/>
		<path opacity="0.95" fill-rule="evenodd" clip-rule="evenodd" fill="#F1D616" d="M959.8,100.7c-1.7,1,0.2,1.4,1.2,1.2
			C962,101.6,960.9,100,959.8,100.7z"/>
		<path opacity="0.95" fill-rule="evenodd" clip-rule="evenodd" fill="#F1D616" d="M979.1,99.7c1.3,0.9,2.6-1,1.9-1.9
			C980,96.6,977.3,98.5,979.1,99.7z"/>
		<path opacity="0.95" fill-rule="evenodd" clip-rule="evenodd" fill="#F1D616" d="M993.6,106.7c0.5,0.5,2.3-0.4,2.1-1.1
			C995.5,105,993.2,106.3,993.6,106.7z"/>
		<path opacity="0.95" fill-rule="evenodd" clip-rule="evenodd" fill="#F1D616" d="M993.1,108.5c-2.4,4.2,1.5,0.5,1.6-0.2
			C994.8,107.4,993.4,108,993.1,108.5z"/>
		<path opacity="0.95" fill-rule="evenodd" clip-rule="evenodd" fill="#F1D616" d="M1013.6,117.3c0.4-0.9-0.6-1.3-1.2-1.2
			C1010.9,116.5,1012.9,119,1013.6,117.3z"/>
		<path opacity="0.95" fill-rule="evenodd" clip-rule="evenodd" fill="#F1D616" d="M962.4,93.7c0.9,0.2,0.8-0.6,0.4-1.1
			C961.6,91.5,960.7,93.4,962.4,93.7z"/>
		<path opacity="0.95" fill-rule="evenodd" clip-rule="evenodd" fill="#F1D616" d="M1011.9,106.8c1.3,0,1.3-2.5,0.1-2.8
			C1010.5,103.7,1010.6,106.8,1011.9,106.8z"/>
		<path opacity="0.95" fill-rule="evenodd" clip-rule="evenodd" fill="#F1BB23" d="M987.1,84.9c-1.4,0.2-1.9,0.6-2.1,2.7
			c-0.1,1.3,1,2.1,2,2.1c1.5,0,3.1-1.1,2.1-2.2c-0.6-0.6-1.5,0.4-1.6-0.1C987.4,86.9,989,84.6,987.1,84.9z"/>
		<path opacity="0.95" fill-rule="evenodd" clip-rule="evenodd" fill="#F1BB23" d="M974.3,102.4c-0.6,0.5,2,1.7,2.7,1.3
			C977.7,103.3,974.9,101.9,974.3,102.4z"/>
		<path opacity="0.95" fill-rule="evenodd" clip-rule="evenodd" fill="#F1BB23" d="M1007.9,101.2c0.6,1.2,2.6-0.4,2-1.1
			C1009.3,99.5,1007.4,100.2,1007.9,101.2z"/>
		<path opacity="0.95" fill-rule="evenodd" clip-rule="evenodd" fill="#F1BB23" d="M979.7,88.3c-1.7,0.2-0.8,4.2,1.1,3.6
			C982.2,91.5,980.7,88.1,979.7,88.3z"/>
		<path opacity="0.95" fill-rule="evenodd" clip-rule="evenodd" fill="#E32728" d="M915.3,112.8c0-0.2-0.1-0.3-0.2-0.5
			c-0.3-0.5-1.2,0.6-1.1,1.1C914.2,114,915.4,113.7,915.3,112.8z"/>
		<path opacity="0.95" fill-rule="evenodd" clip-rule="evenodd" fill="#E32728" d="M907.9,109.1c0.4-0.3,0.5-0.8,0.8-1.2
			c0.3-0.3,0.5,0.5,0.8,0.7c0.7,0.6,0.4-3-0.1-3.4C908.5,104.7,906.6,110.1,907.9,109.1z"/>
		<path opacity="0.95" fill-rule="evenodd" clip-rule="evenodd" fill="#E32728" d="M912.4,107.1c0.2-0.2,0.4-0.6,0.3-0.9
			c-0.1-0.5-0.9-0.2-0.9,0.4C911.8,106.9,912.1,107.3,912.4,107.1z"/>
		<path opacity="0.95" fill-rule="evenodd" clip-rule="evenodd" fill="#E32728" d="M908.2,104.4c1.3-1.1-0.2-2.9-1.1-2
			C905.9,103.6,907.3,105.2,908.2,104.4z"/>
		<path opacity="0.95" fill-rule="evenodd" clip-rule="evenodd" fill="#E32728" d="M950.2,113.9c0-0.4,0-0.8-0.2-1
			C948,110.3,950.1,117.5,950.2,113.9z"/>
		<path opacity="0.95" fill-rule="evenodd" clip-rule="evenodd" fill="#E32728" d="M955.1,113.9c0.8-0.7,1.2-2.7,0.3-3
			C953.7,110.4,952.6,115.8,955.1,113.9z"/>
		<path opacity="0.95" fill-rule="evenodd" clip-rule="evenodd" fill="#E32728" d="M913.1,97c0.3,0.5,0.7,0.2,1-0.1
			c0.2-0.2,0.1-0.7,0-1C913.6,95,912.7,96.4,913.1,97z"/>
		<path opacity="0.95" fill-rule="evenodd" clip-rule="evenodd" fill="#E32728" d="M913.6,94.4c0.6-1-0.1-2-0.9-2
			C910.8,92.4,912.5,96.3,913.6,94.4z"/>
		<path opacity="0.95" fill-rule="evenodd" clip-rule="evenodd" fill="#E32728" d="M918.5,96c1.2-1.3-1-3.8-2-2.6
			C915.4,94.7,917.5,97.3,918.5,96z"/>
		<path opacity="0.95" fill-rule="evenodd" clip-rule="evenodd" fill="#E32728" d="M909.8,91.8c0.3,0.4,0.8-0.3,0.8-0.7
			c0-0.3-0.3-0.7-0.7-0.5C909.3,91,909.6,91.6,909.8,91.8z"/>
		<path opacity="0.95" fill-rule="evenodd" clip-rule="evenodd" fill="#E32728" d="M942.5,99.5c0.4-0.1,0.9-0.7,1-1.3
			C944,95.5,939.9,100.4,942.5,99.5z"/>
		<path opacity="0.95" fill-rule="evenodd" clip-rule="evenodd" fill="#E32728" d="M927.4,91.2c0.7-1.2,0.1-2.6-1-2.3
			c-0.3,0.1-0.6,0.4-0.8,0.7C924.6,90.7,926.6,92.4,927.4,91.2z"/>
		<path opacity="0.95" fill-rule="evenodd" clip-rule="evenodd" fill="#E32728" d="M946.7,97.6c1.1-1.4-0.7-2.3-1.2-1.1
			C945.1,97.3,946.1,98.4,946.7,97.6z"/>
		<path opacity="0.95" fill-rule="evenodd" clip-rule="evenodd" fill="#E32728" d="M912.5,85.4c0.6-0.3,0.6-1.5,0-1.7
			C911.9,83.5,911.6,85.8,912.5,85.4z"/>
		<path opacity="0.95" fill-rule="evenodd" clip-rule="evenodd" fill="#E32728" d="M937.3,92.7c0.3,0.5,0.7,0.4,1.1,0.1
			c0.7-0.4,0.4-1.8-0.5-1.6C937.5,91.3,937.1,92.4,937.3,92.7z"/>
		<path opacity="0.95" fill-rule="evenodd" clip-rule="evenodd" fill="#E32728" d="M948,90.4c0.8,1,1.7,0.4,2.1-0.7
			C951,86.6,946.3,88.3,948,90.4z"/>
		<path opacity="0.95" fill-rule="evenodd" clip-rule="evenodd" fill="#E32728" d="M936.3,90c0.2,0.8,0.9-1.4,0.3-0.9
			C936.4,89.3,936.2,89.7,936.3,90z"/>
		<path opacity="0.95" fill-rule="evenodd" clip-rule="evenodd" fill="#E32728" d="M955.1,92.1c-0.4-1.8-2.7-0.2-2.9,0.9
			C952,94.8,955.6,94.6,955.1,92.1z"/>
		<path opacity="0.95" fill-rule="evenodd" clip-rule="evenodd" fill="#E32728" d="M935.1,117.3c0.6,0,0.6,1.6-0.1,1.4
			C934.9,118.2,934.7,118,935.1,117.3z"/>
		<path opacity="0.95" fill-rule="evenodd" clip-rule="evenodd" fill="#E32728" d="M945.2,115.5c2.2-2.1-1-5.6-2.8-3.8
			C940.3,113.8,943.7,117,945.2,115.5z"/>
		<g opacity="0.8">
			<path fill="#9A1F61" d="M935.2,174.6c0.1-0.1,0.3-0.3,0.4-0.5c1.5-2.6-0.3-6.2-3.2-7.1c-0.8-0.3-1.9,0.2-2.5-0.5
				c-0.2-0.3-0.1-0.9-0.2-1.3c-0.1-0.3-1.2-2.2-1.6-2.4c-2.5-1.8-7.7-2.1-9.1,0.7c-0.5,1-0.4,0.9-0.9,2c0,0.1-0.1,0.7-0.1,1.4
				c-3.2-0.5-6.4,1.2-4.8,4.1c0.2,0.3,1,0.6,0.7,0.9c-0.2,0.3-0.6-0.1-0.7,0.1c-0.2,0.2,0,0.5-0.2,0.9c-0.3,0.6-1.1,0.5-1.8,0.9
				c-4.8,2.4-0.1,10.2,5.2,10.7c1.5,0.2,3,0,4-0.4c0.3-0.1,0.1-0.3,0.5-0.5c1-0.4,1.3-0.3,1.7-1.1c0.1-0.2,0.2-1.1,0.7-0.9
				c1.4,0.4,0.8,2.8,1.7,3.6c1.9,1.5,5.6,0.9,6.6-0.8c0.3-0.5,1-0.8,1.4-1.2c1.2-1.3-0.2-3.3-0.7-4c-0.2-0.2-0.9-0.3-1.1-0.9
				c-0.1-0.6,0.7-1.2,0.9-2c0.1-0.4,1.2,0.1,1.5-0.2c0.3-0.3,0.8-0.7,0.9-0.4c0.4,1.3,2.1,2,2.5,0.2
				C937.1,175.4,936.5,174.6,935.2,174.6z"/>
		</g>
		<path opacity="0.95" fill-rule="evenodd" clip-rule="evenodd" fill="#532260" d="M911.9,162.1c1.1-2.6,3.5-3.8,2-5.3
			c-1.7-1.7,0.5-3.2-1.9-5.4c-0.4-0.3,0.8-0.7,0.4-1.2c-0.4-0.6-1.1,0.1-1.6-0.3c-0.5-0.4,0.6-1.4,0.3-1.9c-0.4-0.8-1.7,0.5-2.2,0
			c-0.3-0.3-0.2-0.8-0.4-1.2c-0.7-1-0.9-1.2-2.3-0.7c-0.6,0.2-1.6,0.6-1.7,0.1c-0.2-0.7-0.2-1-0.9-1c-1.6,0-2.4,0.1-3.5-0.3
			c-1.1-0.4-2.7,1.8-3.9,3.5c-0.6,0.6-2.6,0.3-2.7,1c-0.2,0.9,0.5,1.4,0.3,1.9c-0.3,0.8-2.3,0.1-2.3,0.9c-0.1,2.1-1.5,3.8-0.8,4.4
			c1,0.8,0.2,1.7,0.5,3.6c0.2,1.6,1.4,0.9,2.3,2.2c1.1,1.6,1,2.6,1.7,3.1c0.5,0.4,1.4-1,2-0.7c0.4,0.3,0,1,0.4,1.2
			c0.5,0.2,1-0.3,1.6-0.2c0.6,0,0.2,1,0.9,1.3c1.2,0.6,2.5-1.6,3.6-1.2c0.5,0.2,0.5,1.6,1.3,1.4c0.7-0.2,0.6-1.4,0.9-1.8
			c0.1-0.2,0.4-0.4,0.9-0.4c0.8-0.1,1.1,1.4,1.5,0.7C909.1,163.7,911,164.3,911.9,162.1z"/>
		<g opacity="0.8">
			<path fill-rule="evenodd" clip-rule="evenodd" fill="#0473B8" d="M993.9,189.9c-0.2-0.2-0.5-0.3-0.7-0.5
				c-1.4-0.9-2.4-2.7-3.6-1.8c-0.2,0.1-0.4,0.3-0.4,0.4c0,0.6,1,1.1,1.4,1.9c0.7,1.2,1.9,2.1,3.3,2.8V189.9z"/>
			<path fill-rule="evenodd" clip-rule="evenodd" fill="#0473B8" d="M930.5,178.5c-0.5-0.4,0.4-0.1,0.9-0.7c0.5-0.5,1.7,0.2,2.6,0
				c0.2-0.1-0.3-0.2-0.1-0.3c0.8-0.6,2.1-0.4,2.6,0.2c0.2,0.2-0.4,0-0.6,0C933.7,177.8,931.5,179.2,930.5,178.5z"/>
			<path fill-rule="evenodd" clip-rule="evenodd" fill="#0473B8" d="M940.8,201.7c-0.5-1,1.4-3.2,2.7-2.4c0.4,0.3,0.8,0.3,1.1,0.2
				c1.8-0.5,1.9-2.6,3.7-3.4c0.5-0.2,0.7-0.1,1.4-0.2c0.3-0.1,0.2,0.2,0.4,0.2c0.5,0,0.9-0.7,1.3-0.2c0.5,0.7-1.4,0.9-2.2,1.3
				c-2.7,1.5-3.2,5.3-7,5.4C941.6,202.5,941.1,202.1,940.8,201.7z"/>
			<path fill-rule="evenodd" clip-rule="evenodd" fill="#0473B8" d="M942,171.3c-0.4-0.3,1.2-0.4,1.9-0.1
				C944.9,171.6,942.6,171.6,942,171.3z"/>
			<path fill-rule="evenodd" clip-rule="evenodd" fill="#0473B8" d="M949.2,171.9c-0.5-0.4,0.9-0.5,1.3,0
				C950.8,172.2,949.5,172.2,949.2,171.9z"/>
			<path fill-rule="evenodd" clip-rule="evenodd" fill="#0473B8" d="M950.6,172.2c-0.1,0-0.1-0.2,0-0.2c0.1-0.1,0.2-0.1,0.3,0
				c0.1,0,0.1,0.2,0,0.2C950.9,172.3,950.7,172.3,950.6,172.2z"/>
			<path fill-rule="evenodd" clip-rule="evenodd" fill="#0473B8" d="M947.3,185.9c-0.2-0.2-0.2-0.5,0-0.7c0.6-0.6,1.5,0.7,1,1
				C948,186.4,947.7,186.1,947.3,185.9z"/>
			<path fill-rule="evenodd" clip-rule="evenodd" fill="#0473B8" d="M965,175.2c-0.2,0.2-0.6-0.4-0.4-0.6
				C964.8,174.5,965.2,175.1,965,175.2z"/>
			<path fill-rule="evenodd" clip-rule="evenodd" fill="#0473B8" d="M978.5,169.7c-0.2-0.2,0.3-1.5,0.3-1.5s1.7-2.8,4.1-2.2
				c1.6,0.3,3.9,0.1,4,2.1c0.1,1.5,1.5,3.6-0.7,4.5c-3.8,1.5-2.7-1.5-6-2.4C980.2,170.1,978.7,169.9,978.5,169.7z"/>
			<path fill-rule="evenodd" clip-rule="evenodd" fill="#0473B8" d="M980.7,192.3c0.5-0.2,1.5-0.2,2.1,0.1c1.9,0.9,3.5,3.7,1.9,4.6
				c-1.5,0.7-2.6-1.6-3.7-2.8C980.6,193.5,980.1,192.5,980.7,192.3z"/>
			<path fill-rule="evenodd" clip-rule="evenodd" fill="#0473B8" d="M974.7,193.7c-0.1,0.6-0.6,0.6-1.2,0.8
				c-0.9,0.3-2.1,0.3-2.5-0.3c-0.7-1,0.5-2.2,1.8-2.1C973.8,192.1,974.5,192.7,974.7,193.7z"/>
			<path fill-rule="evenodd" clip-rule="evenodd" fill="#0473B8" d="M986.6,198.6c0.2,0,1.4,0.2,1.6,0.3c0.6,0.4,1.3,0.7,1.6,1.2
				c0.4,0.8-1.6,3.1-3.7,2.2c-1.3-1.3,0.1-2.1,0.3-2.8C986.4,199.3,986.5,198.6,986.6,198.6z"/>
			<path fill-rule="evenodd" clip-rule="evenodd" fill="#0473B8" d="M937.8,177.5c-1.1-0.2,0.8,0,1.7-0.2c1.1-0.3-1.1,0.9-1.5,0.6
				C937.7,177.8,938.2,177.6,937.8,177.5z"/>
			<path fill-rule="evenodd" clip-rule="evenodd" fill="#0473B8" d="M938.2,170.2c-0.6,1.3-5.6,0.5-5.9-0.9
				c-0.2-1.2,2.8-0.1,4.3,0.2C937.7,169.7,938.6,169.3,938.2,170.2z"/>
			<path fill-rule="evenodd" clip-rule="evenodd" fill="#0473B8" d="M945.8,178.1c0.3-0.2,1.1-0.3,1.4-0.3c0.7-0.2,2.3-1,2.9-0.5
				c1.7,1.4-1.2,1.1-2.1,1.3c-0.1,0-1,0.4-1.4,0.5c-0.3,0-1-0.1-1.2-0.3C945.4,178.6,945.7,178.2,945.8,178.1z"/>
			<path fill-rule="evenodd" clip-rule="evenodd" fill="#0473B8" d="M950.1,173c-0.7,0.6-2.4-0.1-3.3-0.5c-0.9-0.4-2,0-2-0.8
				c0-0.6,1.7,0.2,2.3,0.3c0.7,0.1,2.2,0,2.7,0.5C949.9,172.7,950.4,172.7,950.1,173z"/>
			<path fill-rule="evenodd" clip-rule="evenodd" fill="#0473B8" d="M950.8,173.2c-0.3-0.4,1.1,0.2,1.1-0.2c0-0.2-0.2-0.1-0.4-0.3
				c-0.4-0.4,0.8-0.1,1.1,0.2c1,0.7,3.1,0.7,2.9,1.3C955.4,174.8,951.5,174.2,950.8,173.2z"/>
			<path fill="#0473B8" d="M965.9,173.3c-0.2,0.1-0.2,0.2-0.1,0.3c0.1,0.3,0.3,0.2,0.6,0C966.7,173.4,966.1,173.2,965.9,173.3z"/>
			<path fill="#0473B8" d="M966.1,174c-0.1,0.1-0.1,0.3,0,0.3c0.7,0.3,1.3,0.9,1.3,0.4C967.4,174.3,966.7,173.5,966.1,174z"/>
			<path fill="#0473B8" d="M991.5,175.2c-2.5,0.2-4.9,0.4-7,0.9c-0.9,0.2-1.8,1.3-2.7,1.2c-1.5-0.2-0.9-1.9-2.1-2.9
				c-1.5-1.3-3.7-1.1-5.1-1.3c-1-0.2-3.1-1.4-3.7,0.8c0,0.1,0.4,0.3,0.4,0.4c0,0.2-0.6,0.1-0.9,0.1c0,0,0,0,0,0
				c-0.1,0-0.4,0-0.5,0.1c-0.1,0.1,0.3,0.5-0.1,0.5c-0.3,0-0.5-0.6-0.6-0.3c-0.2,0.6-0.1,1-0.7,1c-0.5,0,0.3-0.9-0.2-0.7
				c-0.7,0.2-1.4-0.3-1.7-0.1c-0.6,0.4,0.3,1.4,0.9,1.4c0.3,0,0,0.1,0.2,0.2c0.1,0.1,0.6,0,0.3,0.2c-0.1,0.1-0.3,0.1-0.4,0
				c-0.1,0-0.2-0.1-0.3-0.1c-0.6-0.2-1.1-1.4-1.5-1.1c-0.4,0.4,0.9,0.7,0.6,1.3c-0.1,0.3-0.3,0.2-0.7,0.1c-2-0.3-2.6-2.1-4.3-1.9
				c-0.6,0.1-0.6-0.1-1.1-0.3c-1.2-0.4-2.7-1.2-2.8-0.4c-0.3,1.4,4.3,0.7,5.7,1.6c0.6,0.3,0.9,1.4,1.2,2c0.1,0.3-1,0.2-0.7,0.4
				c0.5,0.4,2.2,0.1,1.4,0.5c-0.3,0.2-1.4,0.2-1.7,0.3c-2.5,1.2,0,1.6,0.3,2.8c0.1,0.3,0.9,0.3,1,0.7c0,0,0,0.1,0,0.1
				c-0.4,0.5-3-1.7-3.3-0.8c-0.2,0.6,2.2,1,2.1,1.4c0,0.4-0.6-0.3-1.2-0.3c-0.2,0-0.3,0.2-0.4,0.3c-0.5,0.6,1.7,0.3,1,0.8
				c-0.6,0.4-1.6-0.8-2-0.4c-0.5,0.5,1.2,0.3,0.6,0.7c-0.6,0.4-2.9-0.8-3.7-0.3c-2.1,1.3-6.2-0.1-5.8,1.3c0.5,2,8.3-1.3,9.7,0.4
				c0.7,0.9,0.8,1.7,0.1,2.4c-0.4,0.4-0.2,0.1-0.5,0.4c-1.6,1.6-4.6,3-7.1,4.4c-1.3,0.7-3.3,1.1-2.5,1.7c3.9,2.7,7.1-7.3,12.4-5.4
				c0.7,0.2,1,1,1.1,1.6c0,0.2-0.5,0-0.6,0.2c-0.1,0.9-3.2,1.7-2.6,2.6c0.1,0.1,0.5,0.1,0.3,0.2c-0.7,0.3-1.1,1.3-1.9,1.6
				c-2.2,0.8,0,3.3-2.1,4.6c-0.1,0.1-0.5,0.6-0.4,0.9c0.2,0.3,1.1,0.4,1.4,0.1c1.2-1,1.2-2.4,2.1-3.7c0.8-1.1,0.4-2.4,1.4-3.5
				c1.1-1.3,2.5-2.7,4.2-3.7c0.5-0.3,1.4-1.3,2.3-1.2c0.8,0.2,1.6,1.8,2.4,1.6c0.8-0.2,0.1-1.9,0.6-2.3c1.2-0.9,3.5-0.6,4.4-0.3
				c1.5,0.5,1.9,5,4.5,3.1c1.4-1-5.6-2.1-1-5.4c1.7-1.2,0.9-3.8,2.7-5.3c0.5-0.4,1.5-0.5,2.3-0.5c1.5,0.1,4.4,0.6,4.3-0.7
				c0-0.8-2.9,0.1-4.3,0c-0.4,0-0.9,0-1.1-0.2c-0.3-0.2-1-0.4-0.6-0.7c0.4-0.3,0.7-0.5,1.1-0.6c1.7-0.6,4.5-1.1,6.1-1.7
				c0.2-0.1,0.1-0.3,0.3-0.3c0.2-0.1,0.3-0.1,0.5-0.1C991.4,175.6,991.5,175.4,991.5,175.2z M963.7,184.4c-0.1,0.1-0.2,0-0.3-0.1
				c-0.1-0.1,0.2-0.3,0.4-0.2C964,184.1,963.9,184.3,963.7,184.4z M964.6,181.8c-0.2,0.1-0.5-0.1-0.6-0.2c-0.1-0.2,0.5-0.4,0.7-0.2
				C964.8,181.5,964.8,181.7,964.6,181.8z M964.9,180.5c-0.2,0.2-0.9-0.1-1-0.3c-0.3-0.4,1-0.5,1.2-0.1
				C965.2,180.2,965.1,180.4,964.9,180.5z M965.6,178.1c-0.1-0.1,0.2-0.3,0.4-0.2C966.2,178,965.7,178.2,965.6,178.1z"/>
			<path fill="#0473B8" d="M970.2,174.6C970.2,174.6,970.2,174.6,970.2,174.6C970.2,174.6,970.2,174.6,970.2,174.6z"/>
		</g>
		<path opacity="0.8" fill-rule="evenodd" clip-rule="evenodd" fill="#239B8F" d="M985.3,159.4c0.6,0.2,0.5,2-0.2,2.1
			C984.5,161.6,984.8,159.3,985.3,159.4z"/>
		<path opacity="0.8" fill-rule="evenodd" clip-rule="evenodd" fill="#239B8F" d="M987.3,157.5c-0.2,0.2-0.4,0.4-0.6,0.7
			c-0.4,0.5-0.4,1.8,0.4,1.3c0,0,0.1-0.1,0.2-0.2V157.5z"/>
		<path opacity="0.8" fill-rule="evenodd" clip-rule="evenodd" fill="#0973B7" d="M997.9,161.5c2.6,1.2,3.4,2.5,2.7,7.3
			c-0.4,2.9-3.1,4.1-5,3.5c-2.9-0.9-5.5-4.3-3.1-6.1c1.4-1.1,2.8,1.9,3.3,0.6C996.1,165.8,994.1,159.7,997.9,161.5z"/>
		<path opacity="0.8" fill-rule="evenodd" clip-rule="evenodd" fill="#9BB154" d="M1014.9,158.1c3.2,0.9-0.4,7.5-2.8,7.4
			C1010.1,165.4,1013.2,157.6,1014.9,158.1z"/>
		<path opacity="0.8" fill-rule="evenodd" clip-rule="evenodd" fill="#0973B7" d="M979.5,163.3c0.6-0.6,0.9,4.9-0.4,3.4
			C977.8,165.4,978.6,164.3,979.5,163.3z"/>
		<path opacity="0.8" fill-rule="evenodd" clip-rule="evenodd" fill="#0973B7" d="M985.1,160.4c0.5,0.8-2.5,1.4-3.1,0.7
			C981.4,160.4,984.6,159.6,985.1,160.4z"/>
		<path opacity="0.8" fill-rule="evenodd" clip-rule="evenodd" fill="#0973B7" d="M970.4,175.5c-0.9-0.9,1.4-1.5,2.8-0.7
			C975.3,176.1,971.3,176.3,970.4,175.5z"/>
		<path opacity="0.8" fill-rule="evenodd" clip-rule="evenodd" fill="#0973B7" d="M1010.9,173.4c3.3,1.4-0.6,9.9-4.2,7.5
			C1004,179.2,1008.8,172.6,1010.9,173.4z"/>
		<path fill-rule="evenodd" clip-rule="evenodd" fill="#F5E920" d="M980,146.4c11.5-2.2,11,14.4,0,12.6
			C972.6,157.8,972,147.9,980,146.4z M984.4,151.3c-0.5,0.4,0.1,1.1,0.5,1.4c0.3,0.1,1.3,0.1,1.6,0.3c0.8,0.3,0.6-1.2,0.5-1.6
			C986.8,150.2,985.4,150.5,984.4,151.3z"/>
		<path opacity="0.8" fill-rule="evenodd" clip-rule="evenodd" fill="#F8B818" d="M990.4,160.4c0.4,0.1,1.5,1.1,2.1,1.9
			c2.6,3.4,6.2,0.9,5.4,5.7c-0.2,1.4,0.3,3.2,0,4.3c-0.4,1.3-1.6,1.7-1.6,3.2c-0.1,4.4-8.5,5.3-12.5,4.5c-6.9-1.4-9.4-9.1-6.4-14.4
			c1.5-2.7,4.5-5.1,9.4-4.8C988.2,160.9,989.7,160.3,990.4,160.4z"/>
		<path opacity="0.8" fill-rule="evenodd" clip-rule="evenodd" fill="#F07023" d="M986.7,127.8c2.1,0.9,5.9,0.9,7.3,2.1
			c0.9,0.8,2.2,2.3,2.9,3.7c1,2.1,1.4,4.6,0.2,7c-2.6,5.1-8.3,1.7-10.6,4.6c-1.2,1.4-1.2,3.9-2.4,4.7c-1.2,0.8-4,1.2-5.7,0.7
			c-4.4-1.3-5.1-6-2.4-8.9c0.4-0.4,1-0.5,1.4-0.9c0.5-0.6,0.1-1.4-0.4-1.8c-2.5-2.4-8.1-2.1-9.9-4c-1.7-1.8-3.2-6.4-1.9-9.6
			c0.8-1.9,2.4-3.7,3.6-4.6c1.5-1.1,4.9-2.8,7.1-2.4c1.1,0.2,2.9,0.3,4.5,1.3c2,1.2,3.4,2.8,4.6,4.2
			C985.9,124.9,985.2,127.1,986.7,127.8z M976.4,120.9c-0.5-0.1-0.4-1.2,0.1-1.4C977.1,119.4,980.5,121.9,976.4,120.9z"/>
		<path opacity="0.8" fill-rule="evenodd" clip-rule="evenodd" fill="#9A1F61" d="M876.6,130.9c0.8-0.7,1.6,1.6,1.1,2.6
			c-0.3,0.5-0.7,1-1.4,0.8c-0.5-0.1-0.7-1-0.8-1.5C875.5,132.1,876,131.5,876.6,130.9z"/>
		<path opacity="0.8" fill-rule="evenodd" clip-rule="evenodd" fill="#9A1F61" d="M896.3,122.4c1.4-0.8,2.1,2.7,0.6,2.9
			c-0.9,0.1-1.4-0.5-1.7-0.9C894.6,123.6,895.4,122.9,896.3,122.4z"/>
		<path opacity="0.8" fill-rule="evenodd" clip-rule="evenodd" fill="#9A1F61" d="M887.8,121.9c1.6-1.1,2,3.1,0.9,3.9
			c-0.7,0.5-1.3,0.3-1.9-0.2c-0.4-0.3,0-0.6-0.5-1.3C885.7,123.6,886.9,122.5,887.8,121.9z"/>
		<path opacity="0.8" fill-rule="evenodd" clip-rule="evenodd" fill="#9A1F61" d="M900.2,129.8c0.5-0.4,0.3,1.8-0.2,1.8
			C899.3,131.2,899.7,130.3,900.2,129.8z"/>
		<path opacity="0.8" fill-rule="evenodd" clip-rule="evenodd" fill="#9A1F61" d="M960.4,91.8c0.9-0.2,1.8-0.7,2.7-1.3
			c1.7-3.6,1.7-7-0.8-6.6C959.7,84.3,959.5,90.1,960.4,91.8z"/>
		<path opacity="0.8" fill-rule="evenodd" clip-rule="evenodd" fill="#9A1F61" d="M903.8,132.8c1.8,0.4-0.8,2.7-1.3,1.4
			C902.3,133.5,902.9,132.7,903.8,132.8z"/>
		<path opacity="0.8" fill-rule="evenodd" clip-rule="evenodd" fill="#9A1F61" d="M887.8,130.4c-1.7-1-0.1-3.1,0.8-4
			C892.5,122.9,891.1,132.3,887.8,130.4z"/>
		<path opacity="0.8" fill-rule="evenodd" clip-rule="evenodd" fill="#9A1F61" d="M907.1,150.2c0.1-0.1,0.4-0.1,0.5,0
			c0.1,0.1,0.1,0.4,0,0.5c-0.1,0.1-0.4,0.1-0.5,0C907,150.6,907,150.4,907.1,150.2z"/>
		<path opacity="0.8" fill-rule="evenodd" clip-rule="evenodd" fill="#9A1F61" d="M902.8,153.9c0.2-0.2,0.7-0.2,0.9,0
			c0.2,0.2,0.3,0.6,0,0.8c-0.2,0.2-0.7,0.2-0.9,0C902.6,154.5,902.6,154.1,902.8,153.9z"/>
		<path opacity="0.8" fill-rule="evenodd" clip-rule="evenodd" fill="#9A1F61" d="M903.7,161c0.1-0.3,0.6-0.7,0.9-0.7
			c0.4,0,0.7,0.4,0.6,0.8c-0.1,0.3-0.6,0.7-0.9,0.7C903.9,161.8,903.6,161.4,903.7,161z"/>
		<path opacity="0.8" fill-rule="evenodd" clip-rule="evenodd" fill="#9A1F61" d="M897.3,171.7c0.9,1.3,0,1.5-1,3.2
			c-0.6,1-1.7-0.6-1.5-1.5C895,172.4,896.5,170.6,897.3,171.7z"/>
		<path opacity="0.8" fill-rule="evenodd" clip-rule="evenodd" fill="#9A1F61" d="M908,178.9c-0.8-0.6,1.2-1.6,1.8-1.1
			C910.5,178.3,908.6,179.4,908,178.9z"/>
		<path opacity="0.8" fill-rule="evenodd" clip-rule="evenodd" fill="#9A1F61" d="M899.8,192.3c-0.1-1.3,0.7-2.2,1.5-2.9
			c4.6-4.3,1.5,10.6-1,4.8C900,193.3,899.9,192.9,899.8,192.3z"/>
		<path opacity="0.8" fill-rule="evenodd" clip-rule="evenodd" fill="#9A1F61" d="M907.3,152.1c1.1,0.8-2.1,3.4-3,2.2
			C903.4,153,906,151.1,907.3,152.1z"/>
		<path opacity="0.8" fill-rule="evenodd" clip-rule="evenodd" fill="#9A1F61" d="M876.2,189.9c0.2-0.4-1.1-0.3-1.2-0.7
			c0-0.2-0.1-0.6,0.2-0.8c0.4-0.2,0.1,0,0.5-0.3c0.5-0.4,1.4,0.2,1.7,0.7c0.4,0.8-0.4,0.9-1.1,1.6
			C876,190.7,876.1,190.2,876.2,189.9z"/>
		<path opacity="0.8" fill-rule="evenodd" clip-rule="evenodd" fill="#9A1F61" d="M888.8,185.8c0.6-0.9,1.8,1.1,1.2,1.9
			c-0.4,0.6-0.5-1.4-1.2-1.1C888.5,186.6,888.6,186.2,888.8,185.8z"/>
		<g opacity="0.8">
			<path fill-rule="evenodd" clip-rule="evenodd" fill="#802A89" d="M907.1,118.1c0,0-0.2,0-0.2,0c-0.7-1-0.6-4.9,0.7-5
				c1.2-0.1,1.1,3.4,0.6,4.5c-0.1,0.4-0.9,1.2-1.2,1C906.9,118.5,907.2,118.1,907.1,118.1z"/>
			<path fill-rule="evenodd" clip-rule="evenodd" fill="#802A89" d="M919.6,129.8c0.4,0.1,0.3,1.3,0,1.6c-0.2,0.2-1.1,0.4-1.2,0.1
				C918.2,131.1,919.1,129.7,919.6,129.8z"/>
			<path fill-rule="evenodd" clip-rule="evenodd" fill="#802A89" d="M927.8,143.1c-0.4,0.4-1.8,0.4-2-0.1c-0.2-0.6,1.2-2.1,1.8-1.9
				C928,141.3,928.1,142.8,927.8,143.1z"/>
			<path fill-rule="evenodd" clip-rule="evenodd" fill="#802A89" d="M891.6,135.8c0.1,0.4-0.7,1.3-1.2,1.3c-0.5,0-1-0.9-1.1-1.4
				c0-0.2,0.2-0.6,0.4-0.7C890.2,134.8,891.5,135.3,891.6,135.8z"/>
			<path fill-rule="evenodd" clip-rule="evenodd" fill="#802A89" d="M901,152.6c0.5-0.2,0,0.8,0.2,1.4c0.6,2.1-0.9,4.5-1.5,6.6
				c-0.2,0.8-0.1,2.6-0.7,2.2C896.4,160.9,897.8,154.1,901,152.6z"/>
			<path fill-rule="evenodd" clip-rule="evenodd" fill="#802A89" d="M879.8,151.4c-0.3,0-0.2-0.3-0.3-0.6c-0.3-1.2,3.1-2.8,3.6-1.6
				c0.1,0.1,0,0.2,0,0.3C883.3,150.7,881,151.3,879.8,151.4z"/>
			<path fill-rule="evenodd" clip-rule="evenodd" fill="#802A89" d="M896.8,151.6c1.1,0-0.9,1.9-1.3,3.1c-0.2,0.7-1.3,2.4-1.7,1.5
				C893.2,154.7,894.6,151.6,896.8,151.6z"/>
			<path fill-rule="evenodd" clip-rule="evenodd" fill="#802A89" d="M898.2,167.1c0.2-0.1,0.2,0.5,0,0.6
				C898,167.9,898,167.2,898.2,167.1z"/>
			<path fill-rule="evenodd" clip-rule="evenodd" fill="#802A89" d="M898.1,167.8c0.8,0.1,0.1,2.9-0.6,2.7
				C896.4,170.1,897.2,167.7,898.1,167.8z"/>
			<path fill-rule="evenodd" clip-rule="evenodd" fill="#802A89" d="M921.7,153.4c0.2-0.5,0.7-0.9,1.3-0.9c0.3,0,2.4,0.9,2.6-0.2
				c0.3-1.1-0.1-2.1-0.7-2.4c-0.3-0.1-0.9,0.4-1.1,0.2c-0.3-0.3,0.1-1.5,0.3-1.9c0.3-0.5,1.6-1.2,1.7-1c0.3,0.3-0.6,0.9-0.4,1.2
				c0.4,0.5,2.2,0.3,2.7-0.2c0.4-0.3,0.6-1.3,0.5-1.8c-0.2-0.7-1.2-1.3-2-1.3c-0.7,0-1.9,0.9-2.4,0.7c-0.4-0.2-1.4-0.8-1.3-1.3
				c0.1-0.3,1-0.1,1.2-0.3c0.1-0.3-0.5-0.8-0.6-1.1c-0.1-0.3,1.4-1.9,1.3-2.1c-0.9-1.4-2.4,1.2-2.7,1c-0.1-0.1-0.2-0.3-0.2-0.5
				c0.2-1.3,2.2-3.7,3.5-4c0.3-0.1,0.7,0.7,1,0.6c0.6-0.1,1-1.5,1.4-2c0.6-0.6,3.1-1.7,2.6-2.3c-0.5-0.6-2.1,1.9-2.9,2
				c-0.3,0-0.6-0.6-0.9-0.6c-0.6,0.1-1.1,1.6-1.5,2c-1,0.9-3.2,3.1-4.4,2.8c-0.1,0-0.2-0.3-0.2-0.5c0.2-0.9,2.4-1.6,3-2.4
				c0.3-0.4,1-1.3,1-1.8c0-0.5-0.8-1.5-1.4-1.5c-0.6,0-1.6,1.2-1.7,1.8c0,0.2,0.4,0.6,0.3,0.8c-0.2,0.8-1.7,2.3-2.4,2.1
				c-0.5-0.1-0.3-1.4,0-1.9c0.3-0.5,1.4-0.3,1.4-0.8c0-0.6-1.9-1.1-2.4-0.6c-0.2,0.2-0.2,0.9-0.4,1.1c-0.2,0.2-0.3,0.3-0.5,0.2
				c-0.7-0.2-0.9-1.1-1.3-1.6c-0.5-0.5,0.9-2.5,0.6-3.2c-0.2-0.6-3.6-1.8-3.5-2c0.3-1.6,1.9-1.2,2.1-2.6c0.2-1.1,0.6-1.8,1.4-2.7
				c0.7-0.8,1.4-1.6,2.2-2.4c0.7-0.7,1.3-1.5,2-2.2c0.7-0.6,3.7-2.6,4.5-3c1.3-0.8-1.9-1.8-2.5-1.4c-0.8,0.5-3,3.6-3.5,4.3
				c-0.6,0.7-2.3,1.1-2.9,1.8c-0.6,0.7-0.2,1.6-0.8,2.3c-1.2,1.4-2.3,4.1-3.9,4.5c-1.3,0.3-2.2-1.6-2.7-2.7
				c-0.6-1.5,0.4-6.8-1.3-6.5c-2,0.3,0.7,6-0.3,7.7c-0.1,0.2-0.5,0.5-0.8,0.5c-0.4,0.1-1.2-0.1-1.5-0.3c-1-0.5-2.3-2.4-2.8-3.4
				c-0.4-0.8-1-2.5-1.2-3.3c-0.3-0.9-0.7-2.6-1-3.5c-0.2-0.5-0.7-1.4-0.7-1.9c0.1-0.9-0.4-1.5-0.3-2.4c0-0.1-0.2-0.3-0.1-0.4
				c0.1-0.2,0.6-0.2,0.7-0.4c0.6-0.9,1.4-3.5,0.7-4.3c-1.3-1.2-4-1-5.4,0.3c-1,0.9-1.7,3.9-1.2,5c0.2,0.6,1.8,0.7,2.2,1.1
				c0.6,0.6,1,2.2,1.6,2.8c0.1,0.1,0.5,0.3,0.6,0.4c1.1,1.3,2.1,4.8,2.6,6.4c0.1,0.3,0.1,0.9,0.3,1.1c0.1,0.3,0.6,0.7,0.7,1
				c0.1,0.2,0,0.6,0,0.8c0.1,0.5,0.6,1.3,0.4,1.8c-0.2,0.5-1.2,1.3-1.7,1.6c-0.6,0.4-1.8,1.4-2.4,1.2c-0.3-0.1-0.2-1.1-0.5-1.1
				c-0.6,0-1.7,1.4-1.4,1.9c0.2,0.4,1.7-0.6,2-0.2c0.4,0.5-0.4,1.9-0.7,2.4c-0.2,0.4-0.5,1.3-0.9,1.6c-0.5,0.3-1.8-0.5-2.2-0.2
				c-0.1,0.1-0.1,0.5,0,0.6c0.3,0.4,1.7-0.1,2,0.3c0.3,0.5-0.4,1.7-0.4,2.3c-0.1,0.7,0.5,2.3,0.2,2.9c-0.2,0.3-0.5,0.5-0.9,0.8
				c0.5-0.2,0.9-0.2,1.2,0c0.4,0.3-0.4,1.7-0.6,2.2c-0.1,0.3-0.5,0.8-0.8,1c-0.6,0.5-1.6,0.9-2.3,1.4c-1,0.8-2.5,1.4-2.5,2
				c-2.9,0.6-8.2,3.5-6.5,5.6c1.9,2.4,5.5-3.5,8.2-5.4c2.1-1.5,4.6-5.4,6.2-4.5c1.4,0.7-2.5,5-0.8,6.3c0.9,0.7,1.1-2.6,3-2.6
				c0.4,0,0.7-1.1,1.1-0.8c1,0.7-1.1,3.5-0.1,3.5c0.6,0,0.6-3.1,1.6-2.7c0.7,0.2,1.2,0.2,2,0.8c0.5,0.3,0.9,0.6,1.1,1.1
				c0,0.1,0,0.3-0.1,0.4c-1.1,0.9-2,2.3-0.4,2.3c1.1,0,0.5-1.9,1.6-1.4c1.6,0.6,0.7,3.3,3.2,3.6c0.8,0.1,0.4,1.7,1.4,1.4
				c1.2-0.4,1.7,0.1,2.7,0.5c0.8,0.3,1.7-0.2,2.9-0.3c0.5,0,0.6-1.3,1.1-1.2c1.6,0.2,0.8-0.6,1.2-1.2c0.7-0.9,4.3,2.8,5.2,2.2
				C924.9,156.8,921.6,153.8,921.7,153.4z"/>
			<path fill-rule="evenodd" clip-rule="evenodd" fill="#802A89" d="M895,142.7c-0.2,0.1-0.4,0.2-0.6,0.3
				C894.6,142.9,894.8,142.8,895,142.7z"/>
			<path fill-rule="evenodd" clip-rule="evenodd" fill="#802A89" d="M929.2,157.2c-0.9-0.7-2.6-1-4-1.5c-1.1-0.3-3.7-2.1-4.1-1.7
				c-0.1,0.1,0.1,0.2,0.1,0.3c1.8,2,1.5,1.4,3.8,2.1c1.6,0.5,3.1,3,4.6,1.7C930,157.7,929.4,157.4,929.2,157.2z"/>
			<path fill-rule="evenodd" clip-rule="evenodd" fill="#802A89" d="M886.3,147.4c1.1,2.5,5.3-2.7,8.1-4.3
				C891.3,144.4,885.1,144.8,886.3,147.4z"/>
			<path fill-rule="evenodd" clip-rule="evenodd" fill="#802A89" d="M894.9,131c0.1,0.6-0.3,1.9-0.8,2.2c-0.6,0.4-2.3,0.3-3-0.1
				c-0.7-0.4-1.9-1.7-1.9-2.6c0.1-2.4,3-2.6,3.4-2.4C893.5,128.5,894.7,130.1,894.9,131z"/>
			<path fill-rule="evenodd" clip-rule="evenodd" fill="#802A89" d="M899,162.8c0.7-0.1,0.3,2.6-0.5,2.7
				C897.7,165.6,898.2,162.9,899,162.8z"/>
			<path fill-rule="evenodd" clip-rule="evenodd" fill="#802A89" d="M913.8,165.4c-1.1,0.8-4.2-1.6-4.4-2.9c-0.2-1,1.4-3.4,2.3-3.3
				C913.4,159.4,915.1,164.4,913.8,165.4z"/>
		</g>
		<path opacity="0.8" fill-rule="evenodd" clip-rule="evenodd" fill="#D01C5C" d="M935.2,166.2c4.7,7.9-8.3,12.4-9.8,3.7
			C924.4,164.1,931.9,160.7,935.2,166.2z M932.5,170.9c-0.5-0.2-0.9,0.4-0.9,0.8c0,0.3,0.2,1,0.2,1.2c0,0.7,1.1,0.1,1.4-0.1
			C934,172.4,933.4,171.4,932.5,170.9z"/>
		<path opacity="0.8" fill-rule="evenodd" clip-rule="evenodd" fill="#8D1E5D" d="M920.3,163.1c0.2,0.3,0.2,2,0,2.9
			c-0.8,4.3,3.7,5.4-0.6,8.1c-1.3,0.8-2.2,2.4-3.3,2.9c-1.3,0.6-2.4-0.1-3.6,0.9c-3.4,2.9-10-3.1-12.2-6.8
			c-3.8-6.3,0.4-13.5,6.5-14.8c3.1-0.7,7.1,0.1,10.3,4.1C918.5,161.7,920,162.5,920.3,163.1z"/>
		<g opacity="0.8">
			<path fill-rule="evenodd" clip-rule="evenodd" fill="#CE3A90" d="M900.3,190c-0.3-0.8-1.8-0.5-1.9-1.4c0-0.3,0.1-0.6,0.2-1
				c1.2-3.4,3.3-6.8,6.5-8.2c1.3-0.6,2.2-1.8,3.1-1.9c0.3,0,0.5,0.2,0.7,0.5c1.6,1.7-1.3,3-2.9,4.8c-1,1.1-2,2.3-2.5,3.1
				c-0.7,1-0.1,1.5,0.4,2.8c0.6,1.7-2.6,2.5-2.9,4.2c-0.5,2.1-1,3.6-1.9,5.6c-0.3,0.7-0.8,1.5-1.6,1.5c-0.4,0-0.8-0.3-0.9-0.7
				C896,195.9,901.6,194.1,900.3,190z"/>
			<path fill-rule="evenodd" clip-rule="evenodd" fill="#CE3A90" d="M923.2,100.9c0.6-0.7,0.2,0.5,1.1,1.2c0.9,0.6-0.3,2.3,0,3.3
				c0.1,0.3,0.3-0.4,0.5-0.2c1,1.1,0.7,2.8-0.3,3.5c-0.4,0.2-0.1-0.6-0.1-0.8C924.4,105.2,922,102.2,923.2,100.9z"/>
			<path fill-rule="evenodd" clip-rule="evenodd" fill="#CE3A90" d="M885,114.6c1.6-0.7,5.4,1.8,4,3.6c-0.4,0.6-0.5,1-0.3,1.5
				c0.9,2.4,4.3,2.5,5.7,4.8c0.4,0.6,0.1,0.9,0.4,1.8c0.1,0.4-0.3,0.3-0.3,0.6c0,0.6,1.1,1.2,0.4,1.7c-1.1,0.7-1.5-1.8-2.2-2.9
				c-2.5-3.5-8.9-4.2-9-9.1C883.7,115.6,884.3,114.9,885,114.6z"/>
			<path fill-rule="evenodd" clip-rule="evenodd" fill="#CE3A90" d="M935.3,115.9c0.5-0.5,0.7,1.6,0.2,2.5
				C934.8,119.7,934.7,116.6,935.3,115.9z"/>
			<path fill-rule="evenodd" clip-rule="evenodd" fill="#CE3A90" d="M934.3,125.3c0.7-0.6,0.8,1.2,0.1,1.7
				C933.9,127.4,933.9,125.7,934.3,125.3z"/>
			<path fill-rule="evenodd" clip-rule="evenodd" fill="#CE3A90" d="M933.9,127.2c0.1-0.1,0.3-0.1,0.4,0c0.1,0.1,0.1,0.3,0,0.4
				c-0.1,0.1-0.3,0.1-0.4,0C933.8,127.5,933.8,127.3,933.9,127.2z"/>
			<path fill-rule="evenodd" clip-rule="evenodd" fill="#CE3A90" d="M911.3,122.9c0.3-0.3,0.9-0.3,1.2,0c1,0.8-1.1,2-1.7,1.3
				C910.4,123.8,910.9,123.4,911.3,122.9z"/>
			<path fill-rule="evenodd" clip-rule="evenodd" fill="#CE3A90" d="M929.1,146c-0.4-0.3,0.6-0.8,0.9-0.5
				C930.4,145.7,929.4,146.2,929.1,146z"/>
			<path fill-rule="evenodd" clip-rule="evenodd" fill="#CE3A90" d="M938.5,163.5c0.4-0.3,2.5,0.4,2.5,0.4s4.6,2.2,3.7,5.3
				c-0.6,2,0,5.1-3.4,5.3c-2.5,0.2-6,2-7.5-0.8c-2.6-4.9,2.5-3.5,3.9-7.8C937.9,165.8,938.1,163.8,938.5,163.5z"/>
			<path fill-rule="evenodd" clip-rule="evenodd" fill="#CE3A90" d="M901.2,166.6c0.3,0.7,0.4,2-0.1,2.8c-1.4,2.4-6.1,4.7-7.5,2.5
				c-1.2-1.9,2.6-3.5,4.6-4.8C899.2,166.5,900.8,165.8,901.2,166.6z"/>
			<path fill-rule="evenodd" clip-rule="evenodd" fill="#CE3A90" d="M898.8,158.7c-1-0.1-1-0.8-1.4-1.6c-0.5-1.1-0.5-2.7,0.5-3.2
				c1.7-0.9,3.6,0.6,3.5,2.3C901.4,157.5,900.5,158.5,898.8,158.7z"/>
			<path fill-rule="evenodd" clip-rule="evenodd" fill="#CE3A90" d="M890.8,174.4c0.1,0.3-0.3,1.8-0.5,2c-0.6,0.7-1.1,1.7-1.9,2.1
				c-1.4,0.6-5.2-2.1-3.7-4.9c2.1-1.8,3.5,0.1,4.7,0.4C889.7,174.1,890.8,174.2,890.8,174.4z"/>
			<path fill-rule="evenodd" clip-rule="evenodd" fill="#CE3A90" d="M925,110.4c0.4-1.4,0,1,0.3,2.2c0.4,1.4-1.5-1.4-1.1-1.9
				C924.5,110.4,924.8,110.9,925,110.4z"/>
			<path fill-rule="evenodd" clip-rule="evenodd" fill="#CE3A90" d="M937.1,110.9c-2.1-0.8-0.9-7.3,1.4-7.7c1.9-0.3,0.1,3.6-0.3,5.6
				C937.9,110.2,938.6,111.5,937.1,110.9z"/>
			<path fill-rule="evenodd" clip-rule="evenodd" fill="#CE3A90" d="M924.1,120.9c0.4,0.4,0.4,1.5,0.6,1.8c0.4,0.9,1.8,3,0.9,3.8
				c-2.3,2.2-1.8-1.6-2.2-2.7c0-0.1-0.7-1.3-0.8-1.8c-0.1-0.4,0.2-1.3,0.5-1.5C923.3,120.3,923.9,120.7,924.1,120.9z"/>
			<path fill-rule="evenodd" clip-rule="evenodd" fill="#CE3A90" d="M932.6,126.4c-1-1,0.1-3.1,0.7-4.3c0.6-1.1,0.1-2.6,1.3-2.6
				c1,0-0.4,2.3-0.5,3c-0.2,0.9,0,2.9-0.8,3.6C933.1,126.2,933,126.8,932.6,126.4z"/>
			<path fill-rule="evenodd" clip-rule="evenodd" fill="#CE3A90" d="M932.3,127.4c0.7-0.3-0.3,1.5,0.4,1.5c0.2,0,0.1-0.3,0.5-0.6
				c0.7-0.5,0.1,1-0.3,1.5c-1.1,1.4-1,4-2.1,3.8C929.8,133.4,930.7,128.3,932.3,127.4z"/>
			<path fill="#CE3A90" d="M932.4,147.2c-0.1-0.2-0.4-0.2-0.5-0.2c-0.4,0.1-0.3,0.3,0,0.7C932.2,148.1,932.5,147.4,932.4,147.2z"/>
			<path fill="#CE3A90" d="M931.2,147.4c-0.1-0.1-0.4-0.1-0.5,0c-0.6,0.9-1.5,1.7-0.6,1.7C930.7,149,932,148.1,931.2,147.4z"/>
			<path fill="#CE3A90" d="M923.5,192.9c0.5,0.3,1.1-0.1,1.4-0.4c0.3-0.3,0.4-0.7,0.6-1.3c1-2.6-1.7-6.6-2.3-9.3
				c-0.3-1.3,0.4-3.5-0.8-3.4C920.2,178.5,919.2,190.6,923.5,192.9z"/>
			<path fill="#CE3A90" d="M933,202.9c-0.2,0,0.2-0.6,0.2-0.6c0.1-0.3-0.6-0.6-0.5-0.9c0-0.1,0.4,0.2,0.4,0.2
				c0.5-1.9-0.1-6.6-1.3-6.9c-0.1,0-0.2,0.4-0.3,0.2c-0.2-0.2-0.4-0.4-0.5-0.7c0.1,0.7,0.3,1.4,0.4,2.1c1.1,4.8-1.8,12.3,2.5,14.4
				c1.3,0.6,1.7-2.1,1.3-3.2c-0.6-1.6-0.8-3.8-1.5-4.8"/>
			<path fill="#CE3A90" d="M931.3,153.4c-0.1,0-0.6,0.6-0.7,0.6c-0.3,0-0.2-0.8-0.2-1.1c0,0,0,0,0,0c0-0.2,0-0.6-0.2-0.7
				c-0.2-0.1-0.8,0.3-0.9-0.1c-0.1-0.4,1.1-0.6,0.5-0.8c-0.9-0.2-1.6-0.1-1.6-0.9c0-0.7,1.5,0.3,1.2-0.2c-0.4-1,0.4-1.8,0.1-2.2
				c-0.7-0.8-2.2,0.4-2.2,1.2c0,0.4-0.2,0.1-0.4,0.2c-0.1,0.1,0,0.8-0.3,0.4c-0.1-0.2-0.1-0.4,0-0.5c0.1-0.1,0.1-0.2,0.2-0.3
				c0.4-0.8,2.4-1.4,1.8-1.9c-0.6-0.6-1.2,1.1-2.1,0.8c-0.5-0.2-0.3-0.4-0.2-0.9c0.5-2.7,3.4-3.5,3.1-5.6c-0.1-0.7,0.2-0.8,0.5-1.5
				c0.6-1.5,1.9-3.5,0.5-3.7c-2.3-0.3-1.1,5.6-2.5,7.4c-0.5,0.7-2.3,1.2-3.3,1.6c-0.4,0.2-0.3-1.4-0.7-0.9c-0.6,0.6-0.1,2.9-0.8,1.9
				c-0.3-0.4-0.3-1.8-0.6-2.2c-2-3.3-2.7,0-4.6,0.4c-0.6,0.1-0.5,1.2-1.1,1.3c0,0-0.1,0-0.1,0c-0.9-0.5,2.7-3.9,1.3-4.3
				c-1-0.3-1.5,2.8-2.3,2.8c-0.6,0,0.5-0.8,0.4-1.5c0-0.3-0.3-0.4-0.5-0.5c-1-0.7-0.5,2.2-1.3,1.3c-0.7-0.8,1.3-2.1,0.6-2.6
				c-0.9-0.7-0.5,1.6-1.2,0.8c-0.6-0.7,1.2-3.8,0.5-4.8c-2.1-2.8,0.1-8.1-2.2-7.6c-3.3,0.7,2.3,10.8-0.5,12.7
				c-1.4,0.9-2.8,1.1-4,0.2c-0.7-0.5-0.1-0.2-0.7-0.7c-2.7-2.1-5-5.9-7.4-9.3c-1.2-1.6-1.9-4.3-2.8-3.2c-4.3,5.1,12.1,9.2,9.1,16.2
				c-0.4,0.9-1.6,1.4-2.6,1.4c-0.3,0-0.1-0.7-0.4-0.7c-1.6-0.2-2.8-4.1-4.3-3.3c-0.2,0.1-0.2,0.7-0.3,0.4c-0.5-1-2.2-1.5-2.7-2.5
				c-1.4-2.8-5.4,0-7.7-2.7c-0.1-0.2-1-0.7-1.4-0.5c-0.5,0.2-0.6,1.4-0.1,1.8c1.6,1.6,4,1.5,6.1,2.7c1.8,1,3.9,0.5,5.9,1.8
				c2.1,1.4,4.4,3.3,6.2,5.5c0.5,0.6,2.2,1.9,2,2.9c-0.2,1.1-3,2.1-2.5,3.2c0.4,1,3.1,0.1,3.8,0.8c1.4,1.5,1.1,4.5,0.6,5.8
				c-0.7,2-8.2,2.5-5.1,5.9c1.7,1.9,3.4-7.3,9-1.4c2,2.2,6.2,1.2,8.7,3.5c0.6,0.6,0.9,1.9,0.9,2.9c-0.1,2-1,5.7,1.3,5.6
				c1.4-0.1-0.2-3.8-0.1-5.7c0-0.6,0.1-1.2,0.3-1.5c0.4-0.4,0.7-1.3,1.2-0.8c0.5,0.5,0.8,0.9,1,1.5c1,2.3,1.9,5.8,2.9,7.9
				c0.1,0.2,0.4,0.1,0.5,0.3c0.4,0.9,0.3,1.7,0.1,2.8c-0.5,3.7,0.3,8.9,2.3,11.7c-1.2-7.1-0.9-16.2-3-22.9c-0.4-1.2-2.1-2.4-2-3.6
				c0.3-2,3-1.1,4.8-2.8c2.1-1.9,1.7-4.9,2-6.7C933,157,934.9,154.2,931.3,153.4z M914.6,144.5c-0.2,0.2-0.4,0-0.5-0.2
				c-0.1-0.1,0-0.3,0.2-0.4C914.4,143.8,914.8,144.3,914.6,144.5z M918.9,145.6c-0.2,0.1-0.5,0.1-0.7-0.1c-0.3-0.3,0.1-0.7,0.3-0.8
				C918.9,144.5,919.2,145.4,918.9,145.6z M921.1,146.2c-0.2,0.1-0.5-0.1-0.6-0.2c-0.3-0.3,0.1-1.1,0.4-1.3
				C921.6,144.2,921.7,145.9,921.1,146.2z M924.8,147.2c-0.2,0.3-0.6-0.4-0.4-0.5C924.7,146.5,925,147,924.8,147.2z"/>
			<path fill="#CE3A90" d="M930.3,152.7C930.3,152.7,930.3,152.7,930.3,152.7C930.3,152.7,930.3,152.7,930.3,152.7z"/>
		</g>
		<path opacity="0.8" fill-rule="evenodd" clip-rule="evenodd" fill="#4C3D93" d="M925.7,124.7c-0.4,0.9-0.3,1.9-0.5,2.2
			c-7.1,5.7-19,2.8-21.8-5.4c-0.1-0.5,0.5-1.1,0.9-1.6c-1.3-2.9,0-6.3,2.7-10c1.5-1.3,3.2-1.6,4.5-3.9c5-2.6,17.1-1.6,17.5,5.6
			c0.3,0.4,1.6,0.6,1.3,1.1c1.2,3,0.2,6.5-1.5,10.1C927.9,123.9,926.2,124.1,925.7,124.7z"/>
		<path opacity="0.8" fill-rule="evenodd" clip-rule="evenodd" fill="#BA1D75" d="M902,119.9c2.7,0.2,4.3,2.1,6.1,1.9
			c4.5-0.4,5.2-1.7,8.5-0.6c4.4,1.4,2.2-2.7,5.2-0.4c1.6,1.2,2.9,1.1,3.8-0.2c0.8-1.2-3.8-0.4-5.2-2.3c-0.5-0.7-0.9-2-0.2-2.7
			c1.4-1.4,3.9,0.9,5.5,0.8c0.9-0.1,2.5-1.8,3.8-0.9c6,4,1.9-1.4,1.1-3.2c-0.4-0.9,2.1-0.3,0.6-1.5c-0.6-0.5-0.7-2.4-0.6-3
			c0.1-1.4,1.5-2.6,2.6-3.2c4.2-2.2,7.6,2.5,9,7.2c0.2,0.8,1-0.6,2.9,0.5c2.3,1.3,1.1,9,3.7,7.6c4.1-2.2,6.5-0.6,6.1,3.3
			c-0.1,1-1.4,1.5-1.3,2.5c0.7,3.5-1.1,4.3-0.4,6c1.1,2.5,3.1,3.3,2.9,6.3c-0.2,3.1,5,3.1,7.3,4.3c1.3,0.7,1.5,1.6,2.4,3
			c0.6,1,2.8,1.6,2,2.6c-1,1.2-2.5,0.4-3.9-0.5c-1.1-0.7-0.8,0.6-2.7,0c-2.3-0.7-4.9-3.7-6.1-4.7c-0.8-0.6-2.5-1.5-5.5,1.2
			c-1.5,1.4,0.3,2.5-0.2,4.6c-0.4,1.6,2.9,2,3.2,4.2c0.1,0.6,0.2,1.2,0,1.8c-0.5,1.8-2.8,1.7-3.5,0.6c-0.4-0.7,0.1-1-0.5-1.4
			c-0.3-0.2-0.5,0.2-1.1,0.2c-1,0-0.5-1.7-1.4-3.1c-0.6-1-1.1-1.9-2.2-1.8c-0.8,0.1-0.9-2-2-2.1c-4.2-0.4-3.6,3.5-6.3,6.2
			c-1,1-4.2-1.4-5.2-0.4c-3,2.9-8.6,2.5-11.2-1.9c-3.5-5.8,0.8-8.6,8.4-7.8c0.6,0.1,1.8-0.1,2.2-1.2c0.3-0.9,1.8-1.8,0-3.1
			c-0.7-0.5-2.4,0.2-3.1,0c-1.5-0.4-2.3-1.9-3.5-1.7c-2.7,0.4-7.1,4.2-6.5,2c0.3-1.2-0.5-1.3-1.3-1.5c-2.1-0.5-2.5,1.1-4.3,0.8
			c-1-0.1-3.4,0.8-3.9-0.9c-0.4-1.4,3.3-3.8,4.9-3.1c1.7,0.7,2.9,0.9,5.3,0.4c3.1-0.6,5.3-0.8,6.6-2.9c0.9-1.4-2.3-3.1-5.7-2.4
			c-1.9,0.4,0-1.3-1.8-1.3c-0.6,0-0.7,1.3-2.2,0.7c-0.4-0.2-1.1-0.5-1.3-0.7c-1.7-1-2.9,0-5.4,0.4c-0.7,0.1-1.3,0-1.9-0.3
			c-1.1-0.7-1.9-1.6-2.9-2.2c-2-1.1-3.4,2.1-4.8,0.3c-0.7-0.9,1.9-2.9,1-3.8C897.3,120.8,899.4,119.6,902,119.9z M950.6,129.7
			c0.5,0.3,0.6-0.7,0.4-1C950.6,128.4,950.3,129.6,950.6,129.7z M960.3,144.1c0.1-0.2-0.2-0.5-0.4-0.5
			C959.2,143.5,959.7,144.9,960.3,144.1z"/>
		<path opacity="0.8" fill-rule="evenodd" clip-rule="evenodd" fill="#EE5A28" d="M962,133.7c0.5-0.5,0.8,0,1,0.5
			c0.4,0.7-1.7,2.5-2.2,1.6C960.4,134.8,961.4,134.4,962,133.7z"/>
		<path opacity="0.8" fill-rule="evenodd" clip-rule="evenodd" fill="#EE5A28" d="M933.5,136.3c0.8-0.6,0.6,2.2-0.4,1.3
			C932.4,137,933.1,136.6,933.5,136.3z"/>
		<path opacity="0.8" fill-rule="evenodd" clip-rule="evenodd" fill="#EE5A28" d="M930.1,139.2c-0.2,0.4-1.3,0.5-1.5,0.1
			c-0.1-0.3-0.2-0.7,0-1C929,137.4,930.5,138.1,930.1,139.2z"/>
		<path opacity="0.8" fill-rule="evenodd" clip-rule="evenodd" fill="#EE5A28" d="M935.6,144c0.3-0.3,1,0.6,0.5,1
			c-0.2,0.2-0.7,0.2-1,0C934.6,144.6,935.2,144.3,935.6,144z"/>
		<path opacity="0.8" fill-rule="evenodd" clip-rule="evenodd" fill="#EE5A28" d="M939.3,147.6c-0.1,0.2-0.3,0.3-0.5,0.5
			c-0.6,0.5-1.4-1-1.1-1.5C938.3,146,939.9,146.8,939.3,147.6z"/>
		<path opacity="0.8" fill-rule="evenodd" clip-rule="evenodd" fill="#EE5A28" d="M927.4,149.3c0.4,0.4,0.3,1,0.6,1.5
			c0.3,0.4,1-0.4,1.4-0.6c1.2-0.5-0.8,3.3-1.6,3.6C926.3,154.3,926,147.9,927.4,149.3z"/>
		<path opacity="0.8" fill-rule="evenodd" clip-rule="evenodd" fill="#EE5A28" d="M932.7,152.9c0.2,0.2,0.3,0.7,0,1
			c-0.4,0.5-1.3-0.1-1-0.7C931.8,152.9,932.4,152.6,932.7,152.9z"/>
		<path opacity="0.8" fill-rule="evenodd" clip-rule="evenodd" fill="#EE5A28" d="M925.7,154.4c1.3,1.6-1.6,3.1-2.4,1.9
			C922.2,154.7,924.9,153.4,925.7,154.4z"/>
		<path opacity="0.8" fill-rule="evenodd" clip-rule="evenodd" fill="#EE5A28" d="M988.2,157.3c-0.1,0.4-0.3,0.8-0.7,1
			C983.5,160.5,989.6,153.4,988.2,157.3z"/>
		<path opacity="0.8" fill-rule="evenodd" clip-rule="evenodd" fill="#EE5A28" d="M929.2,163.9c0.7-0.5,1,0,1.3,0.5
			c0.2,0.3-0.2,0.8-0.5,1C929,166.2,928.4,164.4,929.2,163.9z"/>
		<path opacity="0.8" fill-rule="evenodd" clip-rule="evenodd" fill="#EE5A28" d="M928.8,166.9c0.4,1.3-1,2.1-2.2,1.8
			C923.9,168.2,928.1,164.5,928.8,166.9z"/>
		<path opacity="0.8" fill-rule="evenodd" clip-rule="evenodd" fill="#EE5A28" d="M936.3,166.6c1,1.8-3,3.7-3.9,2.2
			C931.4,167.1,935.4,165,936.3,166.6z"/>
		<path opacity="0.8" fill-rule="evenodd" clip-rule="evenodd" fill="#EE5A28" d="M922.3,168.4c0.6-0.3,0.9,0.5,0.8,1
			c-0.1,0.3-0.8,0.7-1.2,0.3C921.2,169.2,922,168.6,922.3,168.4z"/>
		<path opacity="0.8" fill-rule="evenodd" clip-rule="evenodd" fill="#EE5A28" d="M971.1,170.3c0.5,0.3,1,1,0.8,1.7
			C971.3,175.1,967.8,168.6,971.1,170.3z"/>
		<path opacity="0.8" fill-rule="evenodd" clip-rule="evenodd" fill="#EE5A28" d="M946.4,174.5c0.5,1.5-1,2.8-2.4,2.1
			c-0.4-0.2-0.6-0.6-0.8-1C942.4,174.2,945.9,173,946.4,174.5z"/>
		<path opacity="0.8" fill-rule="evenodd" clip-rule="evenodd" fill="#EE5A28" d="M976,173.6c0.9,1.9-2,2.2-2.2,0.8
			C973.7,173.5,975.5,172.6,976,173.6z"/>
		<path opacity="0.8" fill-rule="evenodd" clip-rule="evenodd" fill="#EE5A28" d="M923.2,176.2c0.7,0.5,0.1,1.8-0.7,1.8
			C921.5,178,922.1,175.4,923.2,176.2z"/>
		<path opacity="0.8" fill-rule="evenodd" clip-rule="evenodd" fill="#EE5A28" d="M960.8,176c0.7-0.4,1.1-0.2,1.5,0.2
			c0.7,0.7-0.3,2.1-1.4,1.6C960.5,177.6,960.4,176.2,960.8,176z"/>
		<path opacity="0.8" fill-rule="evenodd" clip-rule="evenodd" fill="#EE5A28" d="M962.7,178.2c1.6-0.9,2.6,0.2,2.6,1.4
			C965.3,183.2,959.4,179.9,962.7,178.2z"/>
		<path opacity="0.8" fill-rule="evenodd" clip-rule="evenodd" fill="#EE5A28" d="M958.2,178.6c0.6-0.8,0.7,1.7,0,1
			C958,179.4,958,178.9,958.2,178.6z"/>
		<path opacity="0.8" fill-rule="evenodd" clip-rule="evenodd" fill="#EE5A28" d="M959.8,181.1c0.2,0.4,0.1,0.6-0.2,1
			c-0.3,0.5-1.1,0.1-1.3-0.2C957.8,181.1,959.4,180.3,959.8,181.1z"/>
		<path opacity="0.8" fill-rule="evenodd" clip-rule="evenodd" fill="#EE5A28" d="M961.1,183.3c0.9,1.8-1.9,2.2-2.2,0.8
			C958.6,182.9,960.7,182.3,961.1,183.3z"/>
		<path opacity="0.8" fill-rule="evenodd" clip-rule="evenodd" fill="#EE5A28" d="M985.2,182.1c-1.3,1.8-3.9-0.6-3.6-1.9
			C982.1,178.3,987,179.6,985.2,182.1z"/>
		<path opacity="0.8" fill-rule="evenodd" clip-rule="evenodd" fill="#EE5A28" d="M961.4,190.3c-1,0.1-1.7-0.5-1.8-1.2
			C958.8,185.7,965.1,189.8,961.4,190.3z"/>
		<path opacity="0.8" fill-rule="evenodd" clip-rule="evenodd" fill="#EC486A" d="M966,147.7c-0.5,0.8,0.8,3.1,0.9,3.9
			c0.1,1.2-1.2,1.2-1.2,2.3c0.1,1.5,1,0.4,2.4,0.9c1.1,0.3,1.8,1,1.9,1.1c1.1,1.6-1.1,1.6-2.5,2c-1.5,0.4-0.1,2.3-0.3,4
			c-0.2,1.8-0.3,3.1,0.8,3.1c1.4,0,2.4,0,3.1,1.3c1.2,2-0.6,3.7-2.4,3.6c-0.9,0-2.9,1.7-4.4,1.5c-0.8-0.1-1.2-1.9-2.4-2.2
			c-1.6-0.4-0.5,3.4-3.4,5.3c-0.5,0.3-0.8,1.9-1.9,1.4c-1.6-0.8-1.5,1.2-2.4,1.2c-1.2-0.1-0.4,1.8-1.5,1.8c-2.5-0.1-3.9-2.9-7.4-3.2
			c-5.3-0.5-8.7-5.5-12.2-9.6c-0.4-0.5-1.8-0.3-2.1-0.9c-0.7-1.4,0.3-2.3,0.2-3.8c0-0.7-1.5-0.3-1.8-0.9c-0.6-1.4,0.4-2.2,0.8-3.8
			c0.2-0.8,1.9-0.6,2.2-1.3c0.6-1.4-0.9-2.1,0.1-3c0.9-0.9,1.7-1.6,2.4-3.2c1.2-2.7,6.2-1.5,7.2-4.5c0.2-0.7-0.3-1.6,0-2.5
			c0.5-1.5,2.2-2.6,3.2-1.6c0.4,0.4,1,1.2,1.3,1.7c1.1,1.8,2.7,0.2,2.7-1.2c0-2.4,0.7-3.1,2.3-2.9c2.1,0.3,2.6,3.9,0.9,4.5
			c-0.6,0.2-0.9,1.2-0.6,1.7c0.8,1.1,4.2,1.7,5.1-0.6c0.4-1-0.2-1-0.5-1.7c-0.6-1.5,1.6-3.5,2.2-2.4c0.3,0.5,1.7-0.5,2.5,0.8
			c0.3,0.5,0.4,1.6,1,1.9C963.8,143.4,966.9,146.2,966,147.7z"/>
		<path opacity="0.8" fill-rule="evenodd" clip-rule="evenodd" fill="#EE5A28" d="M968.7,149c0.8,0.2,1.6-1.5,0.4-1.5
			C968.9,147.9,968.5,148.1,968.7,149z"/>
		<path opacity="0.8" fill-rule="evenodd" clip-rule="evenodd" fill="#EE5A28" d="M917.2,143.2c0.5,2-4.5,2.2-4.7,0.7
			C912.2,142.2,916.8,141.5,917.2,143.2z"/>
		<path opacity="0.8" fill-rule="evenodd" clip-rule="evenodd" fill="#EE5A28" d="M982,154c2.1,2.9-3.9,5.7-5.6,3.2
			C974.4,154.4,980.5,151.9,982,154z"/>
		<path opacity="0.8" fill-rule="evenodd" clip-rule="evenodd" fill="#EE5A28" d="M942.8,188c1.6,2.1-1.8,4.9-3.6,3.9
			C937.4,191,941.2,185.9,942.8,188z"/>
		<g opacity="0.8">
			<path fill-rule="evenodd" clip-rule="evenodd" fill="#EE5B4B" d="M941.8,178.3c0,0.1,0.2,0.2,0.2,0.3c-0.3,1.9-4.3,6.1-5.6,4.8
				c-1.2-1.2,2.3-4.9,3.8-5.7c0.5-0.2,2.1-0.3,2.2,0.2C942.4,178.1,941.8,178.1,941.8,178.3z"/>
			<path fill-rule="evenodd" clip-rule="evenodd" fill="#EE5B4B" d="M941.2,151.6c-0.3-0.5,1-1.8,1.5-1.8c0.4,0,1.4,0.8,1.3,1.2
				C943.8,151.7,941.6,152.3,941.2,151.6z"/>
			<path fill-rule="evenodd" clip-rule="evenodd" fill="#EE5B4B" d="M946.3,127.9c0.7,0,2.1,1.6,1.9,2.3c-0.4,0.9-3.2,1-3.6,0.2
				C944.1,129.7,945.5,128,946.3,127.9z"/>
			<path fill-rule="evenodd" clip-rule="evenodd" fill="#EE5B4B" d="M974.4,175.6c0.3-0.5,2-0.6,2.4-0.2c0.4,0.5,0.1,2.2-0.3,2.7
				c-0.2,0.2-0.8,0.5-1,0.3C974.8,178.1,974,176.2,974.4,175.6z"/>
			<path fill-rule="evenodd" clip-rule="evenodd" fill="#EE5B4B" d="M981.6,146.7c-0.7-0.3,0.8-1,1.1-1.7c1.4-3,5.3-4.1,7.9-5.8
				c1-0.6,2.7-2.8,2.8-1.6C994.3,142.4,986.3,148.5,981.6,146.7z"/>
			<path fill-rule="evenodd" clip-rule="evenodd" fill="#EE5B4B" d="M1001.2,171.2c0.3,0.3-0.1,0.6-0.3,1c-0.9,1.7-5.8-0.2-5.1-2.1
				c0.1-0.2,0.2-0.2,0.3-0.4C997.1,168,999.9,169.8,1001.2,171.2z"/>
			<path fill-rule="evenodd" clip-rule="evenodd" fill="#EE5B4B" d="M984.7,152.3c-1.1-1.2,2.7-1.1,4.3-2c0.9-0.5,3.5-1.2,3.1,0.1
				C991.4,152.9,986.9,154.7,984.7,152.3z"/>
			<path fill-rule="evenodd" clip-rule="evenodd" fill="#EE5B4B" d="M998.6,133.6c-0.3-0.2,0.3-0.7,0.6-0.7
				C999.6,132.8,998.9,133.7,998.6,133.6z"/>
			<path fill-rule="evenodd" clip-rule="evenodd" fill="#EE5B4B" d="M999.4,132.9c-0.7-1,2.8-3.4,3.2-2.4
				C1003.3,132.1,1000.2,133.9,999.4,132.9z"/>
			<path fill-rule="evenodd" clip-rule="evenodd" fill="#EE5B4B" d="M962.2,123.2c-0.6,0.4-1.6,0.2-2.1-0.4
				c-0.2-0.3-1.4-3.6-2.7-2.6c-1.4,1-2,2.5-1.6,3.4c0.2,0.4,1.3,0.5,1.3,1c0,0.7-1.5,1.6-2.2,1.7c-0.8,0.2-2.7-0.4-2.7-0.8
				c0-0.6,1.5-0.3,1.6-0.9c0.1-1-1.9-2.7-2.8-2.8c-0.7-0.1-1.8,0.8-2.2,1.4c-0.5,0.9-0.1,2.8,0.7,3.6c0.7,0.7,2.8,1.1,3,1.9
				c0.2,0.7,0.6,2.5,0,2.8c-0.4,0.2-1.1-1.1-1.5-0.9c-0.4,0.2-0.2,1.4-0.5,1.8c-0.2,0.4-3.2,0.5-3.3,1c-0.5,2.5,3.5,1.3,3.7,1.8
				c0,0.2-0.1,0.6-0.2,0.7c-1.5,1.2-5.9,1.7-7.4,0.6c-0.4-0.3,0-1.5-0.4-1.8c-0.7-0.5-2.5,0.6-3.4,0.6c-1.2,0.1-4.7-1.5-4.8-0.2
				c-0.1,1.3,3.9,0.1,4.8,1c0.3,0.3,0,1.4,0.3,1.7c0.7,0.5,2.6-0.5,3.5-0.5c1.8,0.1,6.2,0.1,7,1.7c0.1,0.2-0.1,0.6-0.2,0.7
				c-1.1,0.7-4-0.8-5.3-0.7c-0.7,0.1-2.2,0.3-2.7,0.9c-0.5,0.6-0.7,2.6-0.2,3.1c0.6,0.7,2.8,0.4,3.5-0.2c0.3-0.2,0.2-1.1,0.5-1.3
				c0.9-0.6,3.9-0.7,4.5,0.3c0.4,0.7-1.1,1.9-1.9,2.2c-0.7,0.2-1.7-1.2-2.2-0.7c-0.6,0.7,0.9,3.3,1.8,3.3c0.4,0,1.1-0.7,1.5-0.8
				c0.4,0,0.6,0,0.8,0.3c0.5,0.9-0.3,2.2-0.3,3.2c-0.1,1.1-3.3,1.8-3.7,2.9c-0.3,0.9,1.8,5.8,1.5,6c-1.8,1.4-3-0.7-4.6,0.5
				c-1.3,1-2.4,1.4-4.1,1.4c-1.5,0.1-3,0.3-4.5,0.3c-1.3,0-2.7,0.3-4,0.2c-1.3,0-6.1-1.2-7.3-1.5c-2-0.5,0.1,4.1,1.1,4.3
				c1.2,0.3,6.4-0.7,7.7-0.9c1.3-0.2,3.3,1.2,4.6,1.1c1.3-0.1,1.8-1.6,3.1-1.7c2.6-0.2,6.3-2.1,8.2-0.7c1.5,1.1,0.6,4.2,0,6
				c-0.9,2.4-7,7.1-5.1,8.7c2.2,1.8,5.2-7.5,7.9-8.3c0.3-0.1,1,0.1,1.2,0.3c0.5,0.3,1.1,1.4,1.3,2c0.4,1.7-0.1,5.2-0.5,6.8
				c-0.3,1.3-1.5,3.8-2,5c-0.6,1.3-1.9,3.7-2.5,4.9c-0.3,0.7-0.7,2.4-1.2,2.9c-0.9,0.9-1.1,2.2-2.1,3c-0.1,0.1-0.2,0.5-0.3,0.6
				c-0.3,0.1-0.8-0.4-1.1-0.4c-1.5,0.3-4.9,2.3-4.9,4c0,2.7,2.9,5.5,5.5,5.6c1.8,0.1,5.5-2.4,6.1-4.3c0.3-0.9-1-2.7-1-3.6
				c0-1.3,1.2-3.6,1.2-4.8c0-0.3-0.2-0.9-0.2-1.2c0.2-2.7,2.6-7.6,3.7-10c0.2-0.4,0.7-1.1,0.8-1.5c0.1-0.4,0.1-1.4,0.2-1.9
				c0.1-0.3,0.6-0.6,0.7-0.9c0.4-0.6,0.7-2.1,1.3-2.4c0.7-0.4,2.4-0.1,3.2,0c0.9,0.2,3.1,0.4,3.5,1.3c0.2,0.4-1,1.4-0.7,1.8
				c0.5,0.7,3,0.3,3.2-0.6c0.2-0.7-2.2-1.2-2.1-1.9c0.1-0.9,2.3-1.6,3.1-1.9c0.6-0.3,1.8-0.9,2.4-0.7c0.8,0.3,1.2,2.5,2,2.6
				c0.2,0,0.6-0.4,0.7-0.7c0.1-0.7-1.7-1.8-1.6-2.5c0.1-0.9,2.1-1.5,2.7-2c0.8-0.8,1.7-3.1,2.7-3.4c0.5-0.1,1-0.1,1.6,0.1
				c-0.7-0.3-1.1-0.7-1.2-1.4c-0.1-0.9,2.1-1.5,2.8-1.8c0.4-0.2,1.3-0.3,1.8-0.3c1.1,0.1,2.4,0.7,3.6,0.9c1.8,0.3,3.8,1.2,4.5,0.5
				c3.5,2.5,11.5,5.1,11.8,0.8c0.4-4.7-8.8-2.1-13.3-2.9c-3.6-0.6-9.8,0.9-10.5-1.8c-0.6-2.3,7.3-2.8,6.9-6.1
				c-0.2-1.8-3.5,1.7-5.5-0.4c-0.4-0.5-1.7,0.4-1.9-0.4c-0.3-1.8,4.6-2.7,3.5-3.8c-0.6-0.7-3.6,2.8-4.2,1.2c-0.4-1-0.9-1.5-1.2-3
				c-0.1-0.8-0.3-1.7,0-2.5c0.1-0.2,0.3-0.4,0.5-0.3c1.9,0.2,4.2-0.3,2.7-2c-1-1.2-2.3,1.5-3-0.2c-0.9-2.4,2.6-4.4,0.4-7.5
				c-0.7-1,1.3-2.4,0-3.1c-1.5-0.8-1.5-2-2.2-3.4c-0.5-1.2-1.8-1.6-3-2.8c-0.6-0.5-1.9,0.7-2.3,0.1c-1.3-1.9-1.4-0.2-2.4-0.1
				c-1.6,0.3-1.5-7.7-2.9-8C962.4,115.8,962.8,122.8,962.2,123.2z"/>
			<path fill-rule="evenodd" clip-rule="evenodd" fill="#EE5B4B" d="M977.8,164.2c0.3,0.1,0.6,0.2,0.9,0.3
				C978.4,164.3,978.1,164.2,977.8,164.2z"/>
			<path fill-rule="evenodd" clip-rule="evenodd" fill="#EE5B4B" d="M958.6,110.7c0.2,1.8,1.5,4,2.5,6c0.8,1.6,1.5,6.4,2.3,6.4
				c0.2,0,0.1-0.3,0.1-0.4c0.2-4.2-0.1-3.2-1.7-6.4c-1.1-2.2-0.1-6.7-2.9-6.9C958.4,109.3,958.6,110.3,958.6,110.7z"/>
			<path fill-rule="evenodd" clip-rule="evenodd" fill="#EE5B4B" d="M990.9,168.5c1.4-4-7.9-2.8-12.1-4
				C983.1,166.3,989.5,172.6,990.9,168.5z"/>
			<path fill-rule="evenodd" clip-rule="evenodd" fill="#EE5B4B" d="M966.4,177.3c0.5-0.7,2.1-1.8,2.9-1.6c1,0.2,2.5,2.3,2.8,3.3
				c0.3,1.2,0.1,4-0.7,4.9c-2.4,2.5-5.5-0.4-5.7-1C965.4,181.5,965.7,178.5,966.4,177.3z"/>
			<path fill-rule="evenodd" clip-rule="evenodd" fill="#EE5B4B" d="M993.7,137.4c-0.7-0.7,2.2-3.2,3.1-2.5
				C997.7,135.8,994.6,138.3,993.7,137.4z"/>
			<path fill-rule="evenodd" clip-rule="evenodd" fill="#EE5B4B" d="M981.8,118.5c1.9,0.3,2.5,6.3,1.5,7.9c-0.8,1.2-4.7,2.3-5.5,1.1
				C976.2,125.5,979.4,118.2,981.8,118.5z"/>
		</g>
		<g opacity="0.8">
			<path fill-rule="evenodd" clip-rule="evenodd" fill="#F5931F" d="M978.9,182.9c0,0.2,0.1,0.3,0,0.6c-0.2-0.1-0.2,0.2-0.4,0.1
				c0-0.1-0.1-0.1-0.2-0.2c-0.1-0.2,0.4-0.3,0-0.4C978.5,182.9,978.7,182.9,978.9,182.9z"/>
			<path fill-rule="evenodd" clip-rule="evenodd" fill="#F5931F" d="M972,109.2c0.1,0,0.2,0.1,0.2,0.3c0.1,0.5-0.2,0.7-0.5,0.9
				c-0.4,0.3-1,0-1.1-0.3C970.5,109.4,971.4,109.1,972,109.2z"/>
			<path fill-rule="evenodd" clip-rule="evenodd" fill="#F5931F" d="M963.9,127.3c0.4,0,0.9,0.1,1,0.6c0.1,0.3-0.2-0.2,0.1,0.3
				c0.7,0.8-2.6,0.6-2.1-0.3C963.1,127.6,963.5,127.3,963.9,127.3z"/>
			<path fill-rule="evenodd" clip-rule="evenodd" fill="#F5931F" d="M1006.4,127.6c0.5-0.6,1.3,0.6,0.9,1c-0.3,0.2-0.3,0.3-0.5,0.4
				C1006.3,129.3,1006,128,1006.4,127.6z"/>
			<path fill-rule="evenodd" clip-rule="evenodd" fill="#F5931F" d="M974,144.1c0.1,0.5-1.8,0.1-1.5-0.4
				C972.9,143.2,973.9,143.5,974,144.1z"/>
			<path fill-rule="evenodd" clip-rule="evenodd" fill="#F5931F" d="M967.7,146.5c0.6-0.5,2,0.7,1.4,1.2c-0.3,0.2-0.7,0.1-1.1-0.1
				C967.7,147.5,967.3,146.8,967.7,146.5z"/>
			<path fill-rule="evenodd" clip-rule="evenodd" fill="#F5931F" d="M967.2,153.2c0.6-0.3,1.7,0.8,1.1,1.3c-0.2,0.2-0.7,0.1-0.9-0.1
				C967,154.1,966.7,153.4,967.2,153.2z"/>
			<path fill-rule="evenodd" clip-rule="evenodd" fill="#F5931F" d="M965.5,153.6c0.4-0.4,1.1,0.6,0.8,0.7
				C965.9,154.5,965.2,154,965.5,153.6z M965.9,153.9C966.3,154.3,965.6,153.5,965.9,153.9L965.9,153.9z"/>
			<path fill-rule="evenodd" clip-rule="evenodd" fill="#F5931F" d="M1006.1,163c0.9-0.2,0.6,1,1,1.9c0.3,0.8-0.2,2.6-1.6,1.8
				C1004.3,166,1005.2,163.2,1006.1,163z M1006.1,165.8c-0.1-0.1-0.4,0-0.3,0.1C1005.9,166,1006.2,165.9,1006.1,165.8z"/>
			<path fill-rule="evenodd" clip-rule="evenodd" fill="#F5931F" d="M966.1,121.8c0.3,0-0.1,0.6-0.3,0.8c-0.3,0.2-0.6,0.2-0.8,0.2
				C964.4,122.8,965.7,121.9,966.1,121.8z"/>
			<path fill-rule="evenodd" clip-rule="evenodd" fill="#F5931F" d="M991.7,166.3c-0.5,0.6-2,0.5-2.1-0.3c-0.1-1.1,0-2.3,0.9-3
				C991.2,162.4,992.3,165.6,991.7,166.3z"/>
			<path fill="#F5931F" d="M991.9,115.6c0,0.1,0.1,0.2,0.1,0.3c-0.1-2-0.9-4-1.7-6.1C990.5,111.9,991.3,114,991.9,115.6z"/>
			<path fill="#F5931F" d="M990.4,108.1c0-0.3,0.4-0.5,0.5-0.9c0.2-2.1,0.4-4.9-0.7-6.1c-0.2-0.2-0.6-0.5-0.6-0.7
				c-0.1-0.4,1-1.7,0-2.4c-0.3-0.2-0.2,1-0.6,0.7c-0.9-0.6-1.3,1.3-1.2,2.6c0.2,3,1.5,5.8,2.6,8.5
				C990.3,109.3,990.3,108.7,990.4,108.1z"/>
			<path fill="#F5931F" d="M973.8,149.9c-0.3,0.5-0.2,0.9,0.3,1.4c0.5,0.5,1.5-0.1,2.2-0.5c0.6-0.3,0.8-1,1.3-1.5
				c0.9-1,0.8-1.7,1.6-2.7c0.3-0.4,0.7-0.7,1.1-1C977.8,146.7,974.9,147.8,973.8,149.9z"/>
			<path fill="#F5931F" d="M985.1,151.4c0.5-0.5,0.9-0.9,1.3-1.4C985.7,150.4,985.4,150.9,985.1,151.4z"/>
			<path fill="#F5931F" d="M1011.2,145.1c-0.3-0.6-0.9,0-1.2-0.3c-0.5-0.5,0.7,0.2,0.4-0.4c-0.1-0.2,0.1-0.3,0-0.5
				c-0.1-0.2-0.4,0.2-0.4,0c-0.1-1.8-3.2-1.8-5.3-3.4c-0.9-0.7,0.3-1.4-0.6-2.2c-0.5-0.5-0.9,0.9-1.1,0.9c-0.1,0-0.4,0-0.5,0.1
				c-0.2,0.1,0,0.4-0.3,0.7c-0.2,0.1-0.7,0.2-0.7,0.3c0,0.2,0.5,0.4,0.5,0.6c0.1,1.2-1.1,2.6-2.3,2.8c-1.2,0.2,1.2-3.7,1.1-3.8
				c0.1-0.1,0.2-0.3,0.3-0.4c0,0,0,0,0,0c0.6-0.4,1.3-0.8,1.1-1.1c-0.3-0.5,0.7-0.7,0.6-1.6c0-0.1-0.1-0.8-0.1-0.9
				c0.1-0.2,0.9,0.6,1,0.5c0.3-0.2,0.1-0.5,0.1-0.7c0-0.5,0.8-1,0.4-1.7c-0.2-0.3-0.5,0.1-0.5-0.2c-0.3-1.3,1.2-2.3,1.3-3.7
				c0-0.3-0.1-0.4-0.4-0.7c-0.4-0.5-0.9,0.5-1.5,0.2c-1.3-0.9-0.1-2.9-0.8-4.2c-0.6-1.1-2.3-1.1-2.6-2.2c-0.6-2.9,3.8-4.4,4.4-6.6
				c0.2-0.6,0.5-1.4,0.1-1.3c-1.7,0.1-1.5,3.6-3.1,4.2c-0.2,0.1-0.4-0.1-0.5,0c-2.6,2.1-4.4,3.4-5,1c-0.7-2.5,0.3-5.6,1.4-8.2
				c0.2-0.5,0.1-1.1,0-1.5c-0.5-0.9-0.8-1-1.4-1c-1-0.1-0.3,2.2-0.5,3.3c-0.2,1.7,0.5,5.9-1.2,6.8c-1.2,0.6-2-0.5-2.1-1.3
				c-0.1-1.1,0.2-1.6-0.1-2.5c0.1,1.4-0.1,2.9-0.8,4.4c-1.4,3.1-6.7,1.4-9.1-2.5c-1.4-2.3-2.9-6.4-5.3-5.5c-0.1,0.1-0.2,0-0.4,0.1
				c-2.7,1.2,1.1,4.4,3.1,5.7c2.4,1.6,5.8,3.3,6.2,6.2c0.6,4.7-6.8-0.1-9.3-1.1c-2.6-1.1-5-2.5-6.5-5.1c-0.6-1-2.3-1.3-2.7-2.5
				c-0.1-0.2-0.2-1-0.3-1.1c-1.1-0.8-5.7,0.3-2.3,2.7c0.2,0.1,0.6,0.1,0.9,0.5c1.4,1.6,2.5,2.2,4.8,3.3c0.8,0.4,1.7,0.9,2.7,1.3
				c3.4,1.2,6.7,2.8,9.3,5.3c0.5,0.5,1,1,1.1,1.7c0.4,1.9-1.4,2.8-1,4.8c0.1,0.6,0.8,0.8,0.8,1.5c0,1-1.4,0.5-1.3,1.7
				c0.1,1,2.6,0.2,2.1,1.3c-1.3,2.9-9.1,2.9-7.8,5.4c1.2,2.5,6.6-5.8,7.6-3c0.2,0.6,0.2,1.1,0.1,1.5c1-1.4,2-3.4,3.3-2
				c0.1,0.1,0.2,0.2,0.2,0.4c0.4,3.8-6.6,5.3-4.4,7.9c0.9,1.1,3.6-3.8,4.1-1.7c0.3,1-0.1,2.1-0.9,3.1c0,0,0,0,0,0
				c0.4-0.2,0.4-0.4,0.7-0.5c0.3-0.1,1-0.3,1.1,0.2c0,0.8-1.1,2.7-0.1,2.4c1.2-0.4,1-3.9,2.2-2.8c0.1,0.1,0.2,0.2,0.2,0.4
				c0.1,1.2,0,3.3,0,4.6c0,1.2-1.4,1.9-1.4,3.1c0,0.9,0.8,3.2,1.5,3.5c3.1,1,1.9-5.5,2.2-8.3c0.2-1.6,1.5-4.3,0.4-5.9
				c-0.2-0.3-0.5-0.5-0.4-0.7c0.3-0.6,0.1-1.2,0.9-1c1.6,0.4,1.4,3.1,2.1,4.6c0.6,1.1,1.1,2.3,1.5,3.6c0.1-1.8,0.1-2.9-0.8-4.8
				c-0.2-0.4-1-1.5-0.8-2.2c0-0.2,0.4,0.3,0.4,0c-0.1-0.9,0.3-3.9,1.3-3c0.5,0.5,0.8,0.4,0.9,1c0.3,3.6,2.3,6.4,2.9,9.6
				c0.3,1.4,0.7,2.4,1.5,3.2c0.3,0.3,0.2,1.1,0.7,1c0.8-0.2-0.3-1.5,0.5-2.1c0.5-0.3,1.2-0.1,1.1-0.6c-0.1-0.5-0.2-0.8-0.5-1.1
				c-0.5-0.6-0.9,0.8-1.4,0.7c-1.6-0.3-2.7-3.8-1.6-4.5c2.3-1.6,6.4,1.8,7.9,0c0.7-0.8,1.4-1.9,1.7-3.1
				C1011.4,146.5,1011.5,145.9,1011.2,145.1z"/>
			<path fill="#F5931F" d="M980.3,145.4c1.7-0.9,3.2-1.8,3.6-3c-0.2,0.3-0.4,0.5-0.6,0.7C982.4,144,981.3,144.6,980.3,145.4z"/>
			<path fill="#F5931F" d="M998.2,161.9c-0.4,3-0.9,6.7,0.9,9.2c0.3,0.4,0.7,1.1,1.2,0.9c0.2-0.1,0-0.2,0-0.4
				c0.2-0.7,0.6-1.9,0.5-2.4c-0.2-1.1-0.3-2.6-0.9-2.5c-0.2,0,0,0.7-0.2,0.5c-0.3-0.2,0.2-0.7,0.2-0.9c-0.2-0.9,0-0.9-0.4-1.6
				c-0.3-0.5-0.6-1.2-0.6-1.4c-0.1,0-0.1,0-0.1-0.1c-0.1-0.5,0.1-0.9,0-1.7c-0.1-0.6-0.3-1.5-0.4-2c-0.1-0.9-0.3-0.9-0.6-1.4
				c0.1,1.2,0.2,2.3,0.2,3.4C998,161.6,998.3,161.5,998.2,161.9z"/>
			<path fill="#F5931F" d="M997.3,153.2c0-0.1-0.1-0.1-0.1-0.1c0.1,0.7,0.3,1.4,0.4,2C997.5,154.5,997.5,153.7,997.3,153.2z"/>
			<path fill="#F5931F" d="M980.3,158.6c1.6,1.2,2.3-3.2,3.5-4.9c0.5-0.7,0.8-1.6,1.2-2.3C982.2,154.2,977.8,156.7,980.3,158.6z"/>
			<path fill="#F5931F" d="M997.8,157.9c-0.1-0.9-0.2-1.8-0.3-2.7c0,0.8,0,1.7,0.2,2.3C997.7,157.7,997.8,157.8,997.8,157.9z"/>
		</g>
		<path opacity="0.8" fill-rule="evenodd" clip-rule="evenodd" fill="#B1D035" d="M1003.3,138.4c0.1-0.1,0.2-0.3,0.3-0.4
			c-0.2,0.2-0.5,0.3-0.8,0.4C1003,138.4,1003.2,138.5,1003.3,138.4z"/>
		<path opacity="0.8" fill-rule="evenodd" clip-rule="evenodd" fill="#B1D035" d="M971.6,155.7c-0.4,0.1-0.7,0.3-1.1,0.6
			c0.1,0.2,0.2,0.4,0.2,0.6C970.9,156.5,971.2,156.1,971.6,155.7z"/>
		<path opacity="0.8" fill-rule="evenodd" clip-rule="evenodd" fill="#B1D035" d="M988.7,171.2c-0.6,0.2-1.1,0.5-1.1,1.1
			c-0.2,3.3,3.9,8.6,7.3,5.9c0.6-0.5,0.6-0.9,0.4-1.3C992.1,176.6,989.4,173.9,988.7,171.2z"/>
		<path opacity="0.8" fill-rule="evenodd" clip-rule="evenodd" fill="#B1D035" d="M970.4,159.1c-0.1,0.3-0.3,0.6-0.6,0.9
			c0.3,0,0.7,0.1,1,0.1C970.7,159.8,970.5,159.4,970.4,159.1z"/>
		<g opacity="0.8">
			<path fill-rule="evenodd" clip-rule="evenodd" fill="#EDC21E" d="M986.6,130.6c0,0,0.1,0,0.2,0c0.6,0.6,1.1,3.3,0.2,3.5
				c-0.8,0.2-1.2-2.2-1.1-3c0.1-0.3,0.5-0.9,0.7-0.8C986.7,130.3,986.6,130.5,986.6,130.6z"/>
			<path fill-rule="evenodd" clip-rule="evenodd" fill="#EDC21E" d="M976.1,123.7c-0.3,0-0.4-0.8-0.3-1.1c0.1-0.2,0.7-0.3,0.8-0.2
				C977,122.7,976.5,123.8,976.1,123.7z"/>
			<path fill-rule="evenodd" clip-rule="evenodd" fill="#EDC21E" d="M968.5,115.5c0.2-0.3,1.2-0.4,1.4-0.1c0.2,0.4-0.5,1.5-1,1.5
				C968.5,116.8,968.3,115.8,968.5,115.5z"/>
			<path fill-rule="evenodd" clip-rule="evenodd" fill="#EDC21E" d="M995,117.1c-0.1-0.3,0.3-0.9,0.6-1c0.3,0,0.9,0.5,0.9,0.8
				c0,0.1,0,0.4-0.2,0.5C996.1,117.6,995.1,117.4,995,117.1z"/>
			<path fill-rule="evenodd" clip-rule="evenodd" fill="#EDC21E" d="M985.9,106.6c-0.3,0.2-0.1-0.6-0.3-0.9c-0.7-1.4,0-3.2,0.1-4.6
				c0-0.6-0.3-1.8,0.2-1.5C987.9,100.5,988,105.3,985.9,106.6z"/>
			<path fill-rule="evenodd" clip-rule="evenodd" fill="#EDC21E" d="M1001,105.4c0.2,0,0.2,0.2,0.3,0.4c0.4,0.8-1.8,2.2-2.3,1.4
				c-0.1-0.1,0-0.1-0.1-0.2C998.6,106.2,1000.1,105.6,1001,105.4z"/>
			<path fill-rule="evenodd" clip-rule="evenodd" fill="#EDC21E" d="M989,106.9c-0.8,0.1,0.3-1.4,0.5-2.2c0.1-0.5,0.5-1.7,0.9-1.2
				C991.1,104.4,990.5,106.7,989,106.9z"/>
			<path fill-rule="evenodd" clip-rule="evenodd" fill="#EDC21E" d="M985.8,96.5c-0.1,0.1-0.2-0.3-0.1-0.4
				C985.8,95.9,985.9,96.4,985.8,96.5z"/>
			<path fill-rule="evenodd" clip-rule="evenodd" fill="#EDC21E" d="M985.7,96c-0.6,0-0.5-2,0-1.9C986.6,94.3,986.4,95.9,985.7,96z"
				/>
			<path fill-rule="evenodd" clip-rule="evenodd" fill="#EDC21E" d="M971.2,108c0,0.4-0.4,0.7-0.8,0.7c-0.2,0-1.8-0.4-1.8,0.4
				c0,0.8,0.4,1.4,0.8,1.5c0.2,0,0.6-0.4,0.8-0.3c0.3,0.2,0.2,1,0,1.3c-0.2,0.3-0.9,0.9-1.1,0.9c-0.2-0.2,0.3-0.7,0.1-0.9
				c-0.3-0.3-1.6,0-1.9,0.4c-0.2,0.3-0.2,0.9-0.1,1.2c0.2,0.4,1.1,0.8,1.6,0.7c0.5-0.1,1.2-0.8,1.6-0.7c0.3,0.1,1.1,0.4,1.1,0.8
				c0,0.2-0.7,0.1-0.8,0.3c0,0.2,0.5,0.5,0.6,0.7c0.1,0.2-0.7,1.4-0.6,1.6c0.8,0.9,1.5-1,1.8-0.9c0.1,0,0.2,0.2,0.2,0.3
				c0,0.9-1,2.8-1.9,3c-0.2,0.1-0.6-0.4-0.8-0.3c-0.4,0.2-0.5,1.1-0.7,1.5c-0.3,0.5-1.9,1.4-1.5,1.8c0.4,0.4,1.2-1.5,1.8-1.6
				c0.2,0,0.5,0.4,0.7,0.3c0.4-0.1,0.5-1.2,0.8-1.5c0.6-0.7,1.8-2.4,2.7-2.3c0.1,0,0.2,0.2,0.2,0.3c0,0.6-1.5,1.3-1.8,1.9
				c-0.2,0.3-0.5,1-0.4,1.3c0.1,0.3,0.8,1,1.2,0.9c0.4-0.1,1-1,0.9-1.4c0-0.2-0.4-0.4-0.4-0.5c0-0.5,0.9-1.7,1.4-1.7
				c0.4,0,0.4,0.9,0.3,1.3c-0.1,0.3-1,0.3-0.9,0.7c0.1,0.4,1.5,0.5,1.8,0.2c0.1-0.2,0-0.6,0.1-0.8c0.1-0.2,0.2-0.2,0.3-0.2
				c0.5,0.1,0.8,0.7,1.1,1c0.4,0.3-0.2,1.8,0.1,2.2c0.2,0.4,2.8,0.9,2.8,1c0,1.1-1.1,1-1.1,1.9c0,0.8-0.2,1.3-0.6,2
				c-0.4,0.6-0.8,1.2-1.2,1.8c-0.4,0.5-0.7,1.1-1.1,1.6c-0.4,0.5-2.2,2.1-2.7,2.5c-0.8,0.7,1.6,1,2,0.7c0.5-0.4,1.6-2.7,1.9-3.2
				c0.3-0.5,1.4-1,1.7-1.5c0.3-0.6-0.1-1.1,0.2-1.7c0.7-1.1,1-3,2.1-3.4c0.9-0.3,1.8,0.9,2.3,1.6c0.7,1,0.7,4.6,1.9,4.3
				c1.3-0.4-1.4-4-0.9-5.3c0-0.1,0.3-0.4,0.5-0.4c0.3-0.1,0.9-0.1,1.1,0c0.8,0.3,1.9,1.4,2.5,2c0.4,0.5,1,1.6,1.4,2.1
				c0.3,0.6,0.9,1.7,1.2,2.3c0.2,0.3,0.7,0.9,0.8,1.2c0.1,0.6,0.5,1,0.6,1.6c0,0.1,0.2,0.2,0.1,0.3c0,0.1-0.4,0.2-0.5,0.3
				c-0.3,0.7-0.5,2.5,0.1,3c1.1,0.7,2.9,0.3,3.7-0.7c0.6-0.7,0.6-2.8,0.1-3.5c-0.3-0.4-1.3-0.3-1.7-0.6c-0.5-0.3-1-1.4-1.5-1.8
				c-0.1-0.1-0.4-0.1-0.5-0.2c-1-0.8-2.2-3-2.8-4.1c-0.1-0.2-0.2-0.6-0.3-0.7c-0.1-0.2-0.5-0.4-0.7-0.6c-0.1-0.1-0.1-0.4-0.1-0.5
				c-0.1-0.3-0.6-0.8-0.6-1.2c0-0.4,0.7-1,0.9-1.3c0.3-0.3,1.1-1.1,1.5-1c0.2,0,0.3,0.7,0.5,0.7c0.4,0,1-1.1,0.7-1.4
				c-0.2-0.3-1.1,0.5-1.4,0.3c-0.3-0.3,0-1.3,0.1-1.7c0.1-0.3,0.2-1,0.4-1.1c0.3-0.2,1.3,0.2,1.6-0.1c0.1-0.1,0-0.4-0.1-0.4
				c-0.3-0.2-1.2,0.2-1.4,0c-0.3-0.3,0-1.2,0-1.6c-0.1-0.5-0.7-1.5-0.5-2c0.1-0.2,0.3-0.4,0.5-0.6c-0.3,0.2-0.6,0.2-0.9,0.1
				c-0.4-0.2,0-1.2,0.1-1.6c0.1-0.2,0.3-0.6,0.4-0.8c0.4-0.4,1-0.7,1.4-1.2c0.6-0.6,1.6-1.2,1.5-1.6c2-0.7,5.3-3.1,3.7-4.4
				c-1.7-1.4-3.4,2.9-5,4.5c-1.3,1.2-2.5,4.1-3.7,3.6c-1.1-0.4,1-3.6-0.4-4.3c-0.7-0.4-0.4,1.8-1.7,2c-0.3,0-0.4,0.8-0.7,0.6
				c-0.8-0.4,0.3-2.5-0.4-2.4c-0.4,0.1,0,2.1-0.7,2c-0.5-0.1-0.9,0-1.5-0.3c-0.4-0.2-0.7-0.3-0.9-0.7c-0.1-0.1-0.1-0.2,0-0.3
				c0.6-0.7,1.1-1.7,0-1.6c-0.8,0.1-0.1,1.3-0.9,1.1c-1.2-0.3-0.9-2.2-2.8-2.2c-0.6,0-0.5-1.1-1.2-0.8c-0.8,0.4-1.2,0.1-1.9-0.1
				c-0.6-0.1-1.1,0.3-2,0.4c-0.4,0.1-0.3,0.9-0.6,0.9c-1.1,0-0.5,0.5-0.7,0.9c-0.3,0.7-3.4-1.5-3.9-1
				C968.5,105.9,971.3,107.7,971.2,108z"/>
			<path fill-rule="evenodd" clip-rule="evenodd" fill="#EDC21E" d="M991.6,112.7c0.1-0.1,0.3-0.2,0.4-0.3
				C991.8,112.5,991.7,112.6,991.6,112.7z"/>
			<path fill-rule="evenodd" clip-rule="evenodd" fill="#EDC21E" d="M965.4,106.1c0.8,0.4,2,0.5,3,0.6c0.8,0.1,2.9,1.1,3.1,0.8
				c0-0.1-0.1-0.1-0.1-0.2c-1.5-1.2-1.3-0.8-2.9-1c-1.2-0.2-2.6-1.7-3.5-0.7C964.8,105.8,965.2,106,965.4,106.1z"/>
			<path fill-rule="evenodd" clip-rule="evenodd" fill="#EDC21E" d="M997,108.8c-1.2-1.6-3.4,2.3-5,3.7
				C993.9,111.2,998.2,110.4,997,108.8z"/>
			<path fill-rule="evenodd" clip-rule="evenodd" fill="#EDC21E" d="M993.3,120.7c-0.1-0.4-0.1-1.3,0.2-1.6c0.4-0.4,1.6-0.4,2.1-0.2
				c0.6,0.2,1.6,1,1.7,1.6c0.3,1.6-1.7,2-2,2C994.7,122.2,993.6,121.2,993.3,120.7z"/>
			<path fill-rule="evenodd" clip-rule="evenodd" fill="#EDC21E" d="M985.8,99.4c-0.5,0.1-0.6-1.7-0.1-1.9
				C986.3,97.4,986.4,99.3,985.8,99.4z"/>
			<path fill-rule="evenodd" clip-rule="evenodd" fill="#EDC21E" d="M975.1,99.1c0.7-0.7,3.1,0.7,3.5,1.5c0.2,0.6-0.5,2.4-1.2,2.5
				C976.2,103.1,974.3,99.9,975.1,99.1z"/>
		</g>
		<path opacity="0.8" fill-rule="evenodd" clip-rule="evenodd" fill="#D01C5C" d="M916.3,129.7c8.4-3.6,11.2,9.9,2.4,10.2
			C912.9,140.1,910.5,132.2,916.3,129.7z M920.7,132.9c-0.3,0.4,0.3,0.9,0.6,1c0.3,0.1,1-0.1,1.3,0c0.7,0.1,0.2-1.1,0.1-1.4
			C922.3,131.6,921.3,132.1,920.7,132.9z"/>
		<g opacity="0.8">
			<path fill-rule="evenodd" clip-rule="evenodd" fill="#F6AF18" d="M949.4,149c0.7-0.1,0.7-1.4,1.4-1.3c0.3,0,0.5,0.2,0.7,0.3
				c2.5,1.6,4.9,3.8,5.5,6.6c0.3,1.1,1.1,2.1,1,2.8c0,0.2-0.3,0.4-0.5,0.5c-1.6,1-2.1-1.6-3.4-3.1c-0.8-1-1.5-2-2-2.5
				c-0.7-0.7-1.1-0.3-2.3-0.2c-1.5,0.2-1.6-2.5-2.9-3.1c-1.6-0.7-2.8-1.4-4.2-2.4c-0.5-0.4-1.1-0.9-1-1.5c0.1-0.3,0.4-0.6,0.7-0.6
				C945.4,144.6,945.9,149.4,949.4,149z"/>
			<path fill-rule="evenodd" clip-rule="evenodd" fill="#F6AF18" d="M1017,182.5c0.4,0.6-0.4,0.1-1.1,0.7c-0.7,0.6-1.8-0.7-2.7-0.6
				c-0.2,0,0.3,0.3,0.1,0.4c-1,0.6-2.4,0.1-2.7-0.8c-0.1-0.3,0.5,0,0.6,0.1C1013.4,182.8,1016.1,181.3,1017,182.5z"/>
			<path fill-rule="evenodd" clip-rule="evenodd" fill="#F6AF18" d="M1012.2,149.5c0.3,1.4-2.3,4-3.5,2.6c-0.4-0.5-0.8-0.5-1.1-0.5
				c-2.1,0.3-2.7,3-4.8,3.8c-0.5,0.2-0.8,0-1.5,0c-0.3,0-0.2-0.3-0.4-0.4c-0.5-0.1-1.2,0.7-1.4,0.1c-0.4-1,1.7-0.9,2.7-1.3
				c3.2-1.4,4.8-6.4,8.7-5.7C1011.6,148.3,1012.1,148.9,1012.2,149.5z"/>
			<path fill-rule="evenodd" clip-rule="evenodd" fill="#F6AF18" d="M1003,189.7c0.4,0.5-1.4,0.3-2-0.3
				C1000,188.6,1002.5,189.1,1003,189.7z"/>
			<path fill-rule="evenodd" clip-rule="evenodd" fill="#F6AF18" d="M995.6,187.3c0.4,0.7-1.1,0.4-1.3-0.2
				C994,186.6,995.4,186.9,995.6,187.3z"/>
			<path fill-rule="evenodd" clip-rule="evenodd" fill="#F6AF18" d="M994.2,186.6c0.1,0.1,0,0.2,0,0.3c-0.1,0.1-0.2,0-0.3-0.1
				c-0.1-0.1,0-0.2,0-0.3C994,186.5,994.1,186.6,994.2,186.6z"/>
			<path fill-rule="evenodd" clip-rule="evenodd" fill="#F6AF18" d="M1001.3,169.2c0.2,0.3,0.1,0.7-0.2,0.9
				c-0.8,0.7-1.4-1.2-0.8-1.6C1000.7,168.4,1001,168.8,1001.3,169.2z"/>
			<path fill-rule="evenodd" clip-rule="evenodd" fill="#F6AF18" d="M980,179.6c0.3-0.3,0.5,0.6,0.3,0.8
				C979.9,180.7,979.7,179.9,980,179.6z"/>
			<path fill-rule="evenodd" clip-rule="evenodd" fill="#F6AF18" d="M964.4,184.2c0.1,0.3-0.8,2-0.8,2s-2.5,3.3-4.9,2.1
				c-1.5-0.8-4-0.9-3.7-3.6c0.3-2-0.7-5.2,1.9-5.9c4.3-1.2,2.4,2.6,5.6,4.5C962.7,183.3,964.2,183.8,964.4,184.2z"/>
			<path fill-rule="evenodd" clip-rule="evenodd" fill="#F6AF18" d="M967.9,153.8c-0.6,0.2-1.6,0-2.2-0.5c-1.7-1.6-2.7-5.7-0.8-6.4
				c1.7-0.7,2.3,2.7,3.1,4.5C968.4,152.2,968.7,153.5,967.9,153.8z"/>
			<path fill-rule="evenodd" clip-rule="evenodd" fill="#F6AF18" d="M974.7,153.2c0.3-0.8,0.8-0.7,1.5-0.8c1-0.2,2.3,0,2.5,0.9
				c0.4,1.5-1.1,2.8-2.4,2.4C975.2,155.4,974.5,154.5,974.7,153.2z"/>
			<path fill-rule="evenodd" clip-rule="evenodd" fill="#F6AF18" d="M963.4,144.1c-0.2,0-1.4-0.6-1.6-0.7c-0.5-0.6-1.2-1.1-1.4-1.9
				c-0.2-1.2,2.5-3.8,4.5-2.2c1.1,1.9-0.6,2.8-1.1,3.7C963.8,143.2,963.6,144.1,963.4,144.1z"/>
			<path fill-rule="evenodd" clip-rule="evenodd" fill="#F6AF18" d="M1009,182.3c1.1,0.5-0.8-0.2-1.8-0.1c-1.2,0.1,1.4-1,1.7-0.6
				C1009.2,181.9,1008.7,182.1,1009,182.3z"/>
			<path fill-rule="evenodd" clip-rule="evenodd" fill="#F6AF18" d="M1006.7,192c1-1.6,6,0.5,5.9,2.4c-0.1,1.6-2.9-0.5-4.4-1.2
				C1007.1,192.8,1006,193.1,1006.7,192z"/>
			<path fill-rule="evenodd" clip-rule="evenodd" fill="#F6AF18" d="M1000.8,179.8c-0.4,0.2-1.3,0.1-1.6,0.2
				c-0.8,0.1-2.7,0.9-3.2,0.1c-1.4-2.2,1.6-1.2,2.6-1.3c0.1,0,1.2-0.4,1.6-0.3c0.3,0,1,0.4,1.1,0.7
				C1001.4,179.3,1001,179.7,1000.8,179.8z"/>
			<path fill-rule="evenodd" clip-rule="evenodd" fill="#F6AF18" d="M995,185.8c0.9-0.7,2.5,0.6,3.3,1.3c0.8,0.7,2.1,0.5,1.9,1.5
				c-0.1,0.8-1.7-0.7-2.3-0.9c-0.7-0.3-2.3-0.5-2.7-1.2C995.1,186.2,994.6,186,995,185.8z"/>
			<path fill-rule="evenodd" clip-rule="evenodd" fill="#F6AF18" d="M994.3,185.3c0.2,0.6-1.1-0.5-1.2,0.1c0,0.2,0.2,0.1,0.4,0.5
				c0.3,0.7-0.8-0.1-1.1-0.5c-0.9-1.1-3-1.5-2.7-2.4C989.9,182.3,993.8,183.9,994.3,185.3z"/>
			<path fill="#F6AF18" d="M978.5,182.1c0.2,0,0.2-0.3,0.2-0.4c0-0.4-0.2-0.3-0.6-0.1C977.7,181.7,978.2,182.1,978.5,182.1z"/>
			<path fill="#F6AF18" d="M978.5,181c0.1-0.1,0.2-0.3,0.1-0.4c-0.6-0.6-1.2-1.5-1.2-0.8C977.2,180.4,977.8,181.6,978.5,181z"/>
			<path fill="#F6AF18" d="M943.3,167.2c-0.3,0.3-0.1,0.9,0.1,1.2c0.2,0.3,0.5,0.4,0.9,0.7c1.9,1.3,5.6-0.2,7.8-0.3
				c1.1,0,2.7,0.9,2.9,0C955.3,167,945.8,164.1,943.3,167.2z"/>
			<path fill="#F6AF18" d="M933.8,173.2c0.1-0.1,0.5,0.2,0.4,0.3c0.3,0.1,0.6-0.4,0.8-0.2c0.1,0-0.2,0.3-0.2,0.3
				c1.4,0.7,5.3,1,5.8,0.1c0-0.1-0.3-0.2-0.1-0.3c0.2-0.1,0.4-0.2,0.6-0.3c-0.6,0-1.2,0-1.8,0c-4,0.1-9.5-3.6-11.9-0.4
				c-0.7,0.9,1.4,1.7,2.3,1.6c1.4-0.2,3.2,0,4-0.4"/>
			<path fill="#F6AF18" d="M973.6,180.1c0-0.1-0.4-0.6-0.3-0.7c0.1-0.2,0.7,0,0.9,0c0,0,0,0,0,0c0.1,0,0.5,0.1,0.5,0
				c0.1-0.1-0.2-0.7,0.3-0.7c0.3,0,0.3,1,0.5,0.5c0.3-0.7,0.3-1.3,0.9-1.2c0.5,0.1-0.5,1.1,0,1c0.8-0.2,1.4,0.6,1.8,0.4
				c0.7-0.4,0.1-1.9-0.6-2c-0.4-0.1,0-0.2-0.1-0.3c-0.1-0.1-0.6-0.1-0.2-0.3c0.2-0.1,0.3,0,0.4,0.1c0.1,0.1,0.2,0.1,0.2,0.2
				c0.6,0.4,0.8,2.1,1.3,1.8c0.5-0.4-0.7-1.2-0.3-1.8c0.2-0.4,0.4-0.2,0.8,0c2.1,0.9,2.2,3.3,4,3.4c0.6,0,0.6,0.3,1.1,0.6
				c1.1,0.7,2.5,2.1,2.9,1.1c0.6-1.8-4.3-1.8-5.6-3.3c-0.5-0.5-0.6-2-0.7-2.9c-0.1-0.4,1.1,0,0.8-0.4c-0.4-0.6-2.3-0.6-1.4-1
				c0.4-0.2,1.5,0.1,1.9-0.1c2.9-1.1,0.4-2.2,0.4-3.8c0-0.5-0.9-0.6-0.9-1.1c0,0,0-0.1,0-0.1c0.5-0.6,2.7,2.9,3.3,1.8
				c0.4-0.8-2-1.7-1.9-2.4c0.1-0.5,0.6,0.5,1.2,0.6c0.2,0,0.4-0.2,0.5-0.3c0.7-0.7-1.7-0.8-0.9-1.3c0.7-0.5,1.5,1.4,2,0.9
				c0.7-0.6-1.2-0.7-0.4-1.1c0.7-0.4,2.9,1.6,3.8,1.2c2.6-1.2,6.5,1.4,6.5-0.5c-0.1-2.8-9,0.1-10.1-2.6c-0.5-1.3-0.4-2.5,0.5-3.3
				c0.6-0.5,0.2-0.1,0.7-0.5c2.1-1.8,5.6-3,8.6-4.4c1.5-0.7,3.7-0.8,3-1.7c-3.4-4.3-9.4,8.2-14.4,4.6c-0.6-0.4-0.8-1.5-0.7-2.3
				c0-0.2,0.6,0.1,0.6-0.2c0.4-1.2,3.8-1.6,3.4-2.9c-0.1-0.2-0.5-0.3-0.3-0.3c0.8-0.2,1.5-1.6,2.4-1.8c2.5-0.6,0.9-4.4,3.4-5.7
				c0.2-0.1,0.7-0.7,0.6-1.1c-0.1-0.4-1-0.7-1.5-0.4c-1.5,1-1.9,2.9-3.1,4.4c-1.1,1.3-1,3-2.4,4.4c-1.5,1.5-3.3,3-5.4,4.1
				c-0.6,0.3-1.8,1.5-2.7,1.1c-0.8-0.4-1.2-2.7-2.1-2.6c-0.9,0.1-0.6,2.5-1.3,2.9c-1.4,0.9-3.8,0.1-4.7-0.5c-1.5-0.9-0.7-7-3.9-5.1
				c-1.8,1.1,5.3,3.9-0.3,7.4c-2.1,1.3-2,4.8-4.2,6.4c-0.6,0.4-1.7,0.4-2.5,0.2c-1.6-0.5-4.4-1.8-4.7,0.1c-0.2,1.1,3.1,0.5,4.6,0.9
				c0.4,0.1,1,0.3,1.1,0.5c0.3,0.4,0.9,0.7,0.4,1.1c-0.4,0.3-0.8,0.5-1.3,0.6c-2,0.4-5,0.5-6.8,1c-0.2,0-0.2,0.3-0.4,0.4
				c-0.8,0.2-1.4-0.1-2.2-0.4c-2.9-1-7.2-1.2-9.7-0.1c5.9,0.2,13.1,2,18.8,1.4c1-0.1,2.2-1.3,3.2-1c1.5,0.5,0.4,2.6,1.4,4.3
				c1.2,2,3.6,2.2,5.1,2.8C970.5,180.9,972.4,182.9,973.6,180.1z M983.5,168.2c-0.2-0.2,0-0.3,0.2-0.4c0.1-0.1,0.2,0.1,0.3,0.2
				C984,168.2,983.6,168.4,983.5,168.2z M981.9,171.5c-0.1-0.2,0-0.4,0.2-0.5c0.3-0.2,0.5,0.2,0.6,0.4
				C982.7,171.7,982,171.8,981.9,171.5z M981.1,173.2c0-0.2,0.1-0.4,0.3-0.5c0.3-0.2,0.9,0.3,1,0.6
				C982.5,173.9,981.2,173.7,981.1,173.2z M979.6,176c-0.2-0.2,0.4-0.4,0.5-0.2C980.2,176,979.8,176.2,979.6,176z"/>
			<path fill="#F6AF18" d="M974.3,179.5C974.3,179.5,974.4,179.5,974.3,179.5C974.4,179.5,974.3,179.5,974.3,179.5z"/>
		</g>
		<path opacity="0.8" fill-rule="evenodd" clip-rule="evenodd" fill="#EDAA21" d="M1012.1,121.6c3.4,0,5.4,1.6,4.5,2.7
			C1014.5,126.8,1005.7,121.6,1012.1,121.6z"/>
		<path opacity="0.8" fill-rule="evenodd" clip-rule="evenodd" fill="#D43B6C" d="M906.6,132.1c1-0.8,3.5-2.6,4.7-2.2
			c0.3,0.1,0.1,0.9,0.4,1c0.8,0.4,2.6-1.2,3.5-1c1.6,0.5,2.3,4.5,3.7,5.2c0.9,0.5,3.2,0.6,4.1,0.3c0.4-0.1,0.8-0.8,1.2-0.9
			c0.9-0.2,2.8,0.6,3.6,1c0.7,0.3,1.8,1.3,2.3,1.8c0.6,0.6,1.3,1.8,1.5,2.9c0.2,0.9,0.7,1.7,0.3,2.9c-0.4,1.3-0.5,2-1.2,2.9
			c-0.8,1-1.8,1.8-2.8,2.5c-0.8,0.5-1.3,0.4-2.3,0.8c-0.9,0.3-1.5,0.4-3.1,0.4c-0.9,0-1.2,0.3-2.5-0.2c-1.6-0.7-2.3-1.4-2.9-1.7
			c-0.5-0.3,0.4-0.6,0.1-1.1c-0.3-0.6-0.8-0.7-1.2-0.6c-2.4,0.5-4.1,1.8-5.5,1.6c-0.4-0.1-0.8-0.8-1.2-0.8c-0.3,0-0.9,0.7-1.2,0.5
			c-0.3-0.1-0.2-0.8-0.4-1c-1-1.6-5-3.7-5.2-5.6c0-0.5,1.1-1.2,1.1-1.7c0-0.5-1-1.1-1-1.6c0-0.7,1.1-1.8,1.5-2.4
			C904.7,134.5,905.8,132.8,906.6,132.1z"/>
		<path opacity="0.8" fill-rule="evenodd" clip-rule="evenodd" fill="#F9AE3A" d="M995.3,118.1c-0.3,0.3-1,0.6-1.3,1.1
			c-1,1.6-4.5,2.2-6.3,0.7c-2.1-1.8-2.5-6.4,0.3-7c0.9-0.2,1.6-0.7,2.5-0.7c1.7-0.1,3.8,1.5,4.2,2.1
			C995.1,115,996.4,116.9,995.3,118.1z"/>
		<path opacity="0.8" fill-rule="evenodd" clip-rule="evenodd" fill="#F6AF18" d="M997.7,146.2c0.2-0.2,0.5,0.2,0.7-0.1
			c0.2-0.3-0.5-0.5-0.7-0.9c-1.7-3,2-4.6,5.2-3.8c0.2,0,1.3-0.3,1.8,0c0.7,0.4,0.9,1,1.1,1.3c0.2,0.4,0.4,0.5,0.3,1.1
			c0,0.1,0.2,0.1,0.3,0.2c0.4,0.4-0.4,0.6-0.1,0.8c1.1,0.8,1.3,0.7,0.9,1.8c-0.2,0.5-1.6,0.2-1.5,0.8c0.1,0.3,0.2,0.3,0.5,0.4
			c0.5,0.2,0.1,0.6,0.4,0.9c1.4,1.1,1.9,4,1.6,5.3c-0.1,0.7-1.6,2-1.8,2.4c-0.4,0.8-0.7,0.6-1.6,1.1c-0.4,0.2-0.2,0.4-0.4,0.5
			c-0.9,0.3-2.3,0.5-3.8,0.4c-5.1-0.6-9.6-8-5-10.3c0.7-0.4,1.5-0.3,1.7-0.9C997.7,146.7,997.5,146.5,997.7,146.2z"/>
		<path opacity="0.8" fill="#F9E117" d="M974.2,114.7c-1.2,1.3-2.4,1.3-2.8,3.5c-2-2-5.9-1.2-6.8,1.1c-0.6-0.1-1,0.4-0.9,0.7
			c0,0.2,0.4,0.5,0.4,0.5s-0.8,3.9,4.3,4.8c0.4,0.1,0,0.8,0.3,1.1c0.2,0.2,0.7,0.5,0.4,0.6c-1.1,0.4-1.5,1.7,0,1.9
			c0.6,0.1,1.2-0.4,1.1-1.4c0.1,0.1,0.3,0.2,0.4,0.2c2.3,0.9,5.2-0.7,5.7-2.9c0.2-0.6-0.3-1.4,0.2-1.9c0.2-0.2,0.8-0.1,1.1-0.2
			c0.3-0.1,1.7-1.1,1.9-1.3c1.4-1.9,1.3-5.8-1.3-6.6c-0.8-0.3-0.8-0.3-1.8-0.5C976.3,114.3,974.6,114.2,974.2,114.7z"/>
		<g opacity="0.85">
			<path fill-rule="evenodd" clip-rule="evenodd" fill="#F6D009" d="M995.2,190c0.1,0.1,0.2,0.2,0.2,0.4c-0.2,0-0.1,0.2-0.3,0.2
				c-0.1,0-0.1-0.1-0.2-0.1c-0.2-0.1,0.2-0.3-0.1-0.3C994.9,190.1,995,190,995.2,190z"/>
			<path fill-rule="evenodd" clip-rule="evenodd" fill="#F6D009" d="M969.1,138c0.1,0,0.2,0,0.3,0.1c0.2,0.4,0.1,0.5-0.1,0.8
				c-0.2,0.3-0.8,0.2-0.9,0C968.1,138.5,968.7,138.1,969.1,138z"/>
			<path fill-rule="evenodd" clip-rule="evenodd" fill="#F6D009" d="M967.9,153.3c0.3-0.1,0.7-0.1,1,0.2c0.1,0.2-0.2-0.1,0.2,0.2
				c0.7,0.4-1.8,1.1-1.7,0.4C967.4,153.7,967.6,153.4,967.9,153.3z"/>
			<path fill-rule="evenodd" clip-rule="evenodd" fill="#F6D009" d="M1001.1,142.5c0.2-0.6,1.2,0.1,1,0.5c-0.2,0.3-0.1,0.3-0.3,0.4
				C1001.5,143.8,1000.9,142.9,1001.1,142.5z"/>
			<path fill-rule="evenodd" clip-rule="evenodd" fill="#F6D009" d="M980.5,162.9c0.2,0.4-1.4,0.6-1.2,0.1
				C979.4,162.6,980.3,162.5,980.5,162.9z"/>
			<path fill-rule="evenodd" clip-rule="evenodd" fill="#F6D009" d="M976.3,166.3c0.3-0.5,1.8,0,1.4,0.5c-0.2,0.2-0.5,0.2-0.9,0.2
				C976.5,167,976.1,166.6,976.3,166.3z"/>
			<path fill-rule="evenodd" clip-rule="evenodd" fill="#F6D009" d="M977.7,171.3c0.4-0.4,1.5,0.1,1.2,0.6c-0.1,0.2-0.5,0.3-0.7,0.2
				C977.9,172.1,977.4,171.6,977.7,171.3z"/>
			<path fill-rule="evenodd" clip-rule="evenodd" fill="#F6D009" d="M976.6,172.1c0.2-0.4,1.1,0.1,0.8,0.3
				C977.1,172.6,976.4,172.4,976.6,172.1z M977,172.2C977.4,172.4,976.6,172,977,172.2L977,172.2z"/>
			<path fill-rule="evenodd" clip-rule="evenodd" fill="#F6D009" d="M1010.8,168.4c0.7-0.4,0.8,0.6,1.3,1.2c0.5,0.5,0.6,2-0.7,1.7
				C1010.3,171.1,1010.2,168.8,1010.8,168.4z M1011.6,170.5c-0.1,0-0.3,0.1-0.2,0.2C1011.5,170.7,1011.7,170.5,1011.6,170.5z"/>
			<path fill-rule="evenodd" clip-rule="evenodd" fill="#F6D009" d="M968.1,148.7c0.2-0.1,0.1,0.5,0,0.7c-0.2,0.2-0.4,0.3-0.6,0.4
				C967.1,149.9,967.8,148.9,968.1,148.7z"/>
			<path fill-rule="evenodd" clip-rule="evenodd" fill="#F6D009" d="M1000.5,174.6c-0.2,0.6-1.4,0.9-1.7,0.3
				c-0.4-0.8-0.7-1.7-0.2-2.4C999,171.8,1000.8,173.9,1000.5,174.6z"/>
			<path fill="#F6D009" d="M986.5,137.5c0.1,0.1,0.1,0.1,0.2,0.2c-0.7-1.5-1.8-2.7-3-4C984.3,135.2,985.6,136.5,986.5,137.5z"/>
			<path fill="#F6D009" d="M983.2,132.4c-0.1-0.3,0.2-0.5,0.1-0.8c-0.4-1.5-1.1-3.7-2.3-4.3c-0.2-0.1-0.6-0.2-0.7-0.3
				c-0.2-0.3,0.3-1.5-0.7-1.8c-0.3-0.1,0.1,0.8-0.2,0.7c-0.8-0.2-0.7,1.3-0.2,2.2c1,2.1,2.8,3.8,4.4,5.5
				C983.4,133.3,983.3,132.9,983.2,132.4z"/>
			<path fill="#F6D009" d="M982,167.2c-0.1,0.4,0.1,0.7,0.6,0.9c0.6,0.3,1.1-0.5,1.5-0.9c0.4-0.4,0.4-0.9,0.6-1.4
				c0.4-0.9,0.1-1.5,0.5-2.4c0.2-0.4,0.3-0.7,0.6-1C984.2,163.8,982.2,165.4,982,167.2z"/>
			<path fill="#F6D009" d="M991.2,165.4c0.2-0.5,0.4-0.9,0.6-1.3C991.4,164.5,991.3,164.9,991.2,165.4z"/>
			<path fill="#F6D009" d="M1009.8,154c-0.4-0.4-0.7,0.2-1,0.1c-0.5-0.2,0.6,0,0.2-0.4c-0.1-0.1,0-0.2-0.1-0.4
				c-0.1-0.1-0.3,0.2-0.3,0.1c-0.6-1.3-3-0.5-5.1-1.1c-0.9-0.3-0.1-1.1-1-1.5c-0.5-0.2-0.4,0.9-0.6,0.9c-0.1,0-0.3,0.1-0.4,0.2
				c-0.1,0.1,0.1,0.3-0.1,0.6c-0.1,0.1-0.5,0.3-0.5,0.4c0,0.1,0.5,0.1,0.6,0.3c0.4,0.8-0.2,2.2-1,2.6c-0.9,0.5-0.1-3-0.2-3.1
				c0-0.1,0.1-0.2,0.1-0.4c0,0,0,0,0,0c0.4-0.5,0.8-0.9,0.5-1.1c-0.4-0.3,0.4-0.7,0.1-1.3c0-0.1-0.3-0.5-0.3-0.6
				c0-0.2,0.9,0.2,0.9,0.1c0.2-0.2-0.1-0.4-0.1-0.5c-0.2-0.3,0.3-0.9-0.1-1.3c-0.2-0.2-0.3,0.2-0.5,0c-0.6-0.9,0.3-1.9,0-3
				c-0.1-0.2-0.2-0.3-0.5-0.4c-0.5-0.3-0.6,0.6-1.1,0.5c-1.3-0.3-0.9-2.1-1.8-2.9c-0.8-0.6-2.1-0.2-2.6-0.9
				c-1.3-1.9,1.7-4.2,1.6-5.9c0-0.4,0-1.1-0.3-1c-1.3,0.5-0.1,3-1.2,3.9c-0.1,0.1-0.3,0-0.4,0.1c-1.5,2.2-2.4,3.6-3.6,2
				c-1.3-1.7-1.3-4.1-1.2-6.4c0-0.4-0.2-0.9-0.4-1.1c-0.6-0.5-0.9-0.5-1.4-0.4c-0.8,0.2,0.4,1.7,0.6,2.6c0.3,1.3,2,4.2,1,5.3
				c-0.8,0.8-1.7,0.2-2-0.4c-0.4-0.8-0.3-1.2-0.8-1.8c0.5,1,0.7,2.1,0.6,3.4c-0.2,2.7-4.8,2.8-7.8,0.5c-1.7-1.3-4-3.9-5.7-2.6
				c-0.1,0.1-0.2,0.1-0.3,0.2c-1.7,1.6,2.1,2.9,4,3.4c2.3,0.6,5.4,0.9,6.6,2.9c1.8,3.3-5.3,1.7-7.6,1.6c-2.3-0.1-4.6-0.5-6.5-2.1
				c-0.8-0.6-2.2-0.3-2.8-1.1c-0.1-0.1-0.4-0.7-0.6-0.7c-1.1-0.3-4.4,1.7-1.1,2.5c0.2,0,0.5-0.1,0.8,0.1c1.6,0.8,2.5,0.9,4.6,1.2
				c0.8,0.1,1.5,0.2,2.5,0.2c3,0,6,0.3,8.8,1.5c0.5,0.2,1,0.5,1.3,0.9c0.8,1.3-0.3,2.4,0.6,3.7c0.3,0.4,0.9,0.4,1.1,0.9
				c0.3,0.7-0.9,0.7-0.6,1.6c0.3,0.7,2-0.5,2,0.4c-0.2,2.4-6.3,4.4-4.6,6c1.7,1.5,3.5-5.9,5-4.1c0.3,0.4,0.5,0.7,0.5,1.1
				c0.4-1.3,0.6-3,2-2.3c0.1,0.1,0.2,0.1,0.3,0.2c1.4,2.7-3.6,5.6-1.2,6.9c1,0.6,1.7-3.7,2.7-2.3c0.5,0.7,0.5,1.5,0.2,2.5
				c0,0,0,0,0,0c0.3-0.3,0.2-0.4,0.4-0.5c0.2-0.1,0.7-0.5,0.9-0.1c0.2,0.5-0.1,2.3,0.6,1.8c0.8-0.6-0.3-3.1,0.9-2.6
				c0.1,0.1,0.2,0.1,0.3,0.2c0.4,0.9,0.9,2.4,1.3,3.3c0.3,0.9-0.6,1.8-0.2,2.6c0.3,0.7,1.5,2.1,2.2,2.1c2.7,0-0.1-4.5-0.6-6.6
				c-0.3-1.2,0-3.6-1.4-4.4c-0.3-0.2-0.5-0.2-0.5-0.4c0-0.5-0.3-0.9,0.4-1c1.4-0.1,2,1.9,2.9,2.8c0.8,0.7,1.5,1.4,2.2,2.2
				c-0.5-1.3-0.8-2.1-1.9-3.3c-0.2-0.2-1.2-0.8-1.2-1.4c0-0.1,0.4,0.1,0.3-0.1c-0.3-0.6-0.8-2.9,0.1-2.5c0.6,0.2,0.8,0.1,1,0.5
				c1.2,2.5,3.6,4.1,5,6.2c0.6,1,1.2,1.5,2.1,1.9c0.3,0.1,0.5,0.7,0.9,0.5c0.6-0.3-0.6-1.1-0.2-1.7c0.3-0.4,0.9-0.4,0.7-0.7
				c-0.2-0.4-0.4-0.5-0.7-0.7c-0.6-0.3-0.5,0.8-0.9,0.9c-1.3,0.2-3.2-2.1-2.5-2.9c1.4-1.7,5.5-0.3,6.2-2.1c0.3-0.8,0.5-1.7,0.4-2.7
				C1010.3,155,1010.2,154.5,1009.8,154z"/>
			<path fill="#F6D009" d="M985.8,162.3c1.1-1.1,2-2.1,2-3.1c-0.1,0.2-0.2,0.5-0.3,0.7C987,160.7,986.3,161.4,985.8,162.3z"/>
			<path fill="#F6D009" d="M1004.4,169.6c0.5,2.3,1.2,5.2,3.3,6.5c0.4,0.2,0.9,0.6,1.1,0.3c0.1-0.1-0.1-0.1-0.1-0.3
				c-0.1-0.6,0-1.5-0.2-1.9c-0.4-0.8-0.9-1.8-1.4-1.6c-0.1,0.1,0.2,0.5,0,0.4c-0.3-0.1,0-0.6-0.1-0.7c-0.4-0.6-0.3-0.7-0.8-1.1
				c-0.4-0.3-0.8-0.7-0.8-0.9c-0.1,0-0.1,0-0.1,0c-0.2-0.4-0.1-0.7-0.5-1.3c-0.2-0.4-0.7-1-0.9-1.4c-0.3-0.6-0.5-0.6-0.8-0.9
				c0.4,0.8,0.8,1.7,1.1,2.5C1004.1,169.5,1004.3,169.4,1004.4,169.6z"/>
			<path fill="#F6D009" d="M1001.2,163.6c0,0-0.1,0-0.1,0c0.3,0.5,0.6,0.9,0.8,1.4C1001.7,164.4,1001.5,163.9,1001.2,163.6z"/>
			<path fill="#F6D009" d="M989.5,171.9c1.5,0.5,0.9-2.9,1.4-4.5c0.2-0.6,0.2-1.3,0.3-2C989.7,168.2,987,171.1,989.5,171.9z"/>
			<path fill="#F6D009" d="M1002.9,166.8c-0.3-0.6-0.6-1.3-1-1.9c0.2,0.6,0.4,1.2,0.8,1.7C1002.8,166.7,1002.9,166.8,1002.9,166.8z"
				/>
		</g>
		<path opacity="0.8" fill-rule="evenodd" clip-rule="evenodd" fill="#239B8F" d="M969.3,183.9c3.5-0.3,4.2,6.7,1,8
			C966.5,193.4,965.8,184.2,969.3,183.9z"/>
		<path opacity="0.8" fill-rule="evenodd" clip-rule="evenodd" fill="#E32728" d="M954.7,115.1c-0.3,0.4,0.4,1.7,0.4,2.1
			c0,0.6-0.7,0.6-0.7,1.2c0,0.8,0.5,0.2,1.3,0.5c0.6,0.2,1,0.5,1,0.6c0.6,0.9-0.7,0.8-1.5,1c-0.9,0.2-0.1,1.2-0.3,2.1
			c-0.2,0.9-0.3,1.6,0.4,1.7c0.8,0,1.4,0,1.8,0.7c0.6,1.1-0.4,1.9-1.4,1.9c-0.5,0-1.7,0.8-2.5,0.7c-0.5-0.1-0.6-1-1.3-1.2
			c-0.9-0.3-0.4,1.8-2,2.7c-0.3,0.2-0.5,1-1.1,0.7c-0.9-0.4-0.9,0.6-1.4,0.6c-0.7-0.1-0.3,1-0.9,0.9c-1.4-0.1-2.2-1.6-4.1-1.9
			c-3-0.4-4.8-3.1-6.7-5.3c-0.2-0.3-1-0.2-1.2-0.5c-0.4-0.7,0.2-1.2,0.2-2c0-0.4-0.9-0.2-1-0.5c-0.3-0.8,0.3-1.2,0.6-2
			c0.1-0.4,1.1-0.3,1.3-0.7c0.4-0.7-0.5-1.1,0.1-1.6c0.5-0.4,1-0.8,1.4-1.6c0.8-1.4,3.6-0.7,4.2-2.2c0.1-0.4-0.1-0.8,0.1-1.3
			c0.3-0.8,1.3-1.3,1.8-0.8c0.2,0.2,0.5,0.6,0.7,0.9c0.6,1,1.5,0.2,1.6-0.6c0-1.3,0.5-1.6,1.4-1.5c1.2,0.2,1.4,2.1,0.4,2.4
			c-0.4,0.1-0.6,0.6-0.4,0.9c0.4,0.6,2.3,1,2.9-0.2c0.3-0.5-0.1-0.5-0.3-0.9c-0.3-0.8,1-1.8,1.3-1.2c0.2,0.3,1-0.2,1.4,0.5
			c0.2,0.3,0.2,0.8,0.5,1C953.6,112.7,955.3,114.3,954.7,115.1z"/>
	</g>
</g>
</svg>
