<?xml version="1.0" encoding="utf-8"?>
<!-- Generator: Adobe Illustrator 18.0.0, SVG Export Plug-In . SVG Version: 6.00 Build 0)  -->
<!DOCTYPE svg PUBLIC "-//W3C//DTD SVG 1.1//EN" "http://www.w3.org/Graphics/SVG/1.1/DTD/svg11.dtd">
<svg version="1.1" id="Layer_1" xmlns="http://www.w3.org/2000/svg" xmlns:xlink="http://www.w3.org/1999/xlink" x="0px" y="0px"
	 width="1920px" height="225px" viewBox="0 0 1920 225" enable-background="new 0 0 1920 225" xml:space="preserve">
<path fill="#DAF6FF" d="M0,179.3c63.7-68.1,262.1-135.9,437.4-89.9c85.2,22.4,234.6,70.2,321.7,69.6
	c230.9-1.6,273.5-156.9,612.9-79.6c95.9,21.8,139.6,38,256,46c97.6,6.7,262-26,291.9-111.4v205.8L0,219.6V179.3z"/>
<path fill="#FFFFFF" d="M0.4,189.2C64.1,121,262.1,53.5,437.4,99.5c85.2,22.4,234.6,70.2,321.7,69.6
	c230.9-1.6,273.5-156.9,612.9-79.6c95.9,21.8,139.6,38,256,46c97.6,6.7,262.9-26.1,291.9-111.5V225L0,224.8L0.4,189.2z"/>
</svg>
